<?xml version="1.0" encoding="utf-8"?>
<!-- Generator: Adobe Illustrator 25.0.0, SVG Export Plug-In . SVG Version: 6.00 Build 0)  -->
<svg version="1.1" id="Layer_1" xmlns="http://www.w3.org/2000/svg" xmlns:xlink="http://www.w3.org/1999/xlink" x="0px" y="0px"
	 viewBox="0 0 2480 3508" style="enable-background:new 0 0 2480 3508;" xml:space="preserve">
<style type="text/css">
	.st0{fill:#FFFFFF;}
</style>
<path class="st0" d="M1260,896c4.9,10.4,9.6,20.8,14,31.4c3.6,8.5,7.2,17.1,10.9,25.5c0.3,0.7,0.6,1.4,0.9,2.1
	c1.2,3.2,1.2,3.2,3.2,5.9c2.5-0.3,5-0.6,7.5-1c1.1-0.2,1.1-0.2,2.3-0.3c2.4-0.4,4.8-0.7,7.2-1.1c1.6-0.2,3.3-0.5,4.9-0.7
	c4-0.6,8-1.2,12-1.8c2.4,3.7,3.5,6.6,4,11c-1.1,0.4-2.1,0.9-3.2,1.3c-1.5,0.6-2.9,1.2-4.4,1.8c-0.8,0.3-1.5,0.6-2.3,0.9
	c-6.2,2.5-12.3,5.2-18.4,7.9c-2.7,1.1-2.7,1.1-4.7,1.1c-0.4,0.9-0.4,0.9-0.9,1.8c-1.1,2.2-1.1,2.2-3.1,5.2
	c0.5,8.2,3.4,16.4,5.5,24.2c5.2,20.2,5.2,20.2,2.2,26.5c-2.8,3.7-6.6,4.4-10.9,5.8c-3.4,1.7-4.4,3-5.8,6.4
	c-0.6,6.2,1.5,11.4,4.1,16.9c1.3,3.1,1.3,5.8,0.9,9.1c-2,2-2,2-4.6,2.5c-4.9-0.7-7.6-3.4-11.4-6.5c-1-0.7-2-1.3-3-2
	c-4.2,7.6-6.4,14.2-5,23c1.1,3,2.3,5.3,4,8c1.5-4.9,1.5-4.9,3-10c4,1,7.3,2.3,11,4c0.4-0.5,0.9-0.9,1.4-1.4
	c4.7-4.8,9.5-9.1,14.8-13.2c2.8-2.3,5.6-4.6,8.3-7c52.2-43.4,116.8-78.5,184.6-88.4c1.2-0.2,2.4-0.4,3.7-0.5
	c11.4-1.5,22.7-1.9,34.2-1.8c0.9,0,1.9,0,2.8,0c16.1,0,31.6,1.1,47.3,4.4c1,0.2,2.1,0.4,3.2,0.6c58.8,12.4,114.1,39.2,166.9,67.2
	c9.4,5,18.8,9.8,28.3,14.7c6.6,3.4,13.2,6.8,19.8,10.3c41.6,21.9,87.9,45.8,136.1,45.3c2.2,0,4.3,0,6.5,0c3.3,0,6.7-0.1,10-0.1
	c17.8-0.2,35.7-0.1,53.1,4.2c0.9,0.2,1.7,0.4,2.6,0.6c13.5,3.5,25.7,9.3,33.6,21.2c0.5,3.4,0.5,3.4,0,7c-2.2,2.5-2.2,2.5-5.2,4.9
	c-54.6,46.2-78.5,160.4-84.4,228c-4,50.3-0.5,100.8,11.1,149.9c0.5,2.2,0.5,2.2,0.5,4.2c-4.5-1.4-7.3-3.9-10.6-7.1
	c-3.9-3.7-7.8-7.2-11.9-10.5c-3.8-3-7.4-6.2-10.9-9.4c-4.5-4.1-9.1-8-13.8-11.8c-3.5-2.9-6.8-5.9-10.2-9c-2.6-2.3-5.3-4.5-8-6.7
	c-4.8-3.9-9.3-7.9-13.8-12.1c-3.6-3.2-7.3-6.2-11.1-9.3c-2.6-2.2-5.2-4.4-7.7-6.7c-3.4-3.1-6.9-6.1-10.5-9c-4.5-3.6-8.7-7.4-13-11.2
	c-2.6-2.3-5.3-4.5-8-6.8c-4.5-3.6-8.7-7.4-13-11.2c-2.6-2.3-5.3-4.5-8-6.8c-3.6-2.9-7.1-5.9-10.5-9c-3.3-3-6.7-5.9-10.2-8.8
	c-4.5-3.6-8.8-7.3-13.1-11.1c-0.6-0.6-1.3-1.1-1.9-1.7c-1.3-1.1-2.6-2.2-3.9-3.4c-7.1-6.2-14.3-12.4-21.7-18.3
	c-4.4-3.6-8.6-7.3-12.7-11.1c-3.4-3-7-5.9-10.5-8.8c-3.3-2.7-6.6-5.5-9.9-8.3c-6.1-5.3-12.3-10.5-18.5-15.8
	c-1.6-1.4-3.3-2.8-4.9-4.2c-5-4.3-10-8.5-15.1-12.6c-5.4-4.4-10.7-9-16-13.5c-8.2-7-16.4-13.9-24.7-20.7c-3.7-3-7.3-6.1-11-9.2
	c-4.3-3.6-8.6-7.2-13-10.8c-3.2-2.6-6.3-5.2-9.4-7.9c-4.5-3.8-9-7.5-13.6-11.1c-3.8-3-7.5-6.1-11.3-9.2c-0.7-0.6-1.5-1.2-2.3-1.9
	c-3.1-2.6-6.2-5.1-9.3-7.7c-2.7-2.2-5.3-4.4-8-6.5c-0.6-0.5-1.1-0.9-1.7-1.4c-35.3-27.9-75.5-39.9-119.3-46.6c0.3,1,0.7,2,1,3
	c2.2,16.8,3.3,33.9,3.5,50.9c0,1.3,0.1,2.5,0.1,3.8c0,1.2,0,2.3,0,3.5c0,1,0,2,0,3.1c-0.8,3.7-2.5,4.7-5.6,6.7
	c-2.7,1-5.2,1.1-8.1,1.1c-1.2,0-1.2,0-2.3,0c-1.2,0-1.2,0-2.4,0c-1.2,0-1.2,0-2.4,0c-4.4,0-8.4-0.3-12.7-1.1c0.2,1,0.3,2,0.5,3
	c2.3,19,1.1,38.5-2.3,57.2c-6.7,37.4-8.4,76-10.9,113.8c-0.2,2.7-0.4,5.4-0.6,8.1c-0.1,1.6-0.2,3.1-0.3,4.7
	c-0.1,1.3-0.2,2.6-0.3,3.9c-0.8,13.7-1.2,27.4-1.1,41.2c0,0.9,0,1.8,0,2.7c0,23.6,0.5,47.1,0.9,70.7c0.1,6.2,0.2,12.4,0.3,18.6
	c0.1,4.8,0.2,9.7,0.3,14.5c0,2.3,0.1,4.6,0.1,6.8c0.2,14.7,0.2,14.7,0.9,29.4c0.1,1.1,0.1,2.2,0.2,3.4c0.7,4.6,2.7,7.4,5.7,10.7
	c1.1,1.3,2.2,2.7,3.3,4c0.6,0.7,1.1,1.3,1.7,2c2.7,3.3,5.2,6.9,7.6,10.4c1,1.4,2,2.8,3,4.2c0.5,0.7,1,1.4,1.5,2.2
	c7.4,10.5,15,20.8,22.6,31.2c-1.9,2-3.6,3.4-6,5c-3,0-3,0-4.4-1.3c-0.5-0.6-1-1.2-1.5-1.9c-0.6-0.7-1.2-1.5-1.9-2.2
	c-0.7-0.9-1.5-1.8-2.2-2.7c-1.9-2.3-3.9-4.5-5.8-6.8c-0.5-0.6-1-1.2-1.6-1.8c-4.1-4.7-8.2-9.4-12.5-14c-2.1-2.4-4.2-4.9-6.2-7.4
	c-0.7,18.5-1.3,37-2,56c-5,2-5,2-9,2c-0.9-10.1-1-20.2-0.9-30.4c0-3.3,0-6.7,0-10c0-3.4,0-6.9,0.1-10.3c0.7-20.9,0.7-20.9-9.4-38.5
	c-0.5-0.5-1-1-1.5-1.5c-1.9-2-3.4-4.1-5-6.4c-0.5-0.7-1-1.4-1.5-2.1c-1-1.5-2.1-2.9-3.1-4.4c-2.4-3.3-4.8-6.7-7.3-10
	c-0.7-1-1.5-2-2.2-3c-0.6-0.8-1.3-1.7-1.9-2.5c-1.3-2-1.3-2-1.3-4c-0.9,0.1-1.8,0.2-2.7,0.4c-3.4,0.5-6.7,0.9-10.1,1.3
	c-1.5,0.2-2.9,0.4-4.4,0.6c-2.1,0.3-4.2,0.6-6.3,0.8c-1.9,0.3-1.9,0.3-3.8,0.5c-3.6,0.4-7.1,0.4-10.6,0.4c-0.1,0.6-0.2,1.1-0.2,1.7
	c-0.4,2.7-0.7,5.4-1.1,8.1c-0.1,1-0.3,2-0.4,3c-1,7-2,14-3.4,20.9c-1.9,10.6-0.4,20.8,1.2,31.4c0.2,1.5,0.5,3,0.7,4.5
	c0.5,3.2,1,6.5,1.5,9.7c0.8,5.1,1.5,10.3,2.3,15.4c1.5,10,3,20,4.5,30c1.9,12.7,3.8,25.4,5.7,38.2c0.8,5.1,1.5,10.2,2.3,15.3
	c0.5,3.2,1,6.4,1.4,9.6c0.2,1.5,0.4,2.9,0.7,4.4c4.2,27.6,4.2,27.6-1.2,35.3c-0.6,0.8-1.2,1.5-1.8,2.3c-0.6,0.8-1.1,1.6-1.7,2.4
	c-5.5,7.5-11.4,11.4-20.4,13.7c-1.1,0.3-2.3,0.6-3.5,0.9c-13.5,2.9-26.7,3.2-40.4,3c-1.9,0-3.7,0-5.6,0c-4.5,0-9-0.1-13.5-0.1
	c-3.2-13.2-5.9-26.5-8.2-39.9c-0.2-1.1-0.2-1.1-0.4-2.2c-2.3-13.1-4.2-26.3-5-39.6c-2.4-39.8-20.8-78.7-35.4-115.3
	c-2.8,2.6-4.9,5.1-6.8,8.4c-0.7,1.3-0.7,1.3-1.5,2.5c-0.5,0.9-1,1.8-1.5,2.7c-4.6,7.8-9.4,15.3-14.8,22.6c-0.5,0.7-1,1.4-1.5,2.1
	c-0.4,0.6-0.8,1.2-1.3,1.8c-0.9,1.9-0.9,1.9-0.1,4.2c1.7,3.2,3.8,5.9,6.1,8.7c4.7,5.8,9.2,11.7,13.6,17.7
	c8.4,11.2,16.9,22.3,25.7,33.2c-1.5,3.2-3.3,5.9-5.4,8.7c-0.6,0.8-1.2,1.6-1.8,2.4c-1.8,1.9-1.8,1.9-4.8,2.9
	c-15.1-19.8-15.1-19.8-22.1-29.2c-4.4-5.9-8.9-11.8-13.4-17.6c-0.6-0.8-1.2-1.5-1.8-2.3c-0.6-0.7-1.1-1.4-1.7-2.2
	c-0.5-0.6-1-1.3-1.5-1.9c-1.4-1.7-2.9-3.2-4.4-4.7c-0.2,0.6-0.4,1.3-0.7,2c-1.8,4.2-4.3,7.8-6.7,11.7c-1.1,1.7-2.2,3.4-3.3,5.2
	c-0.8,1.3-0.8,1.3-1.7,2.6c-2.5,3.9-5,7.8-7.5,11.8c-0.5,0.8-1,1.5-1.5,2.3c-3.4,5.5-6.9,10.9-10.3,16.4c-1.3,2-2.6,4.1-3.8,6.1
	c-3.1,4.9-6.1,9.8-9.1,14.7c-0.8,1.3-0.8,1.3-1.7,2.7c-1,1.7-2,3.3-3.1,5c-0.5,0.7-0.9,1.5-1.4,2.2c-0.4,0.6-0.8,1.3-1.2,1.9
	c-0.4,0.4-0.8,0.9-1.2,1.4c-1,0-2,0-3,0c-1.9-2.2-1.9-2.2-3.9-5.2c-3.2-4.7-3.2-4.7-7.2-8.7c-0.6-0.7-1.3-1.4-1.9-2.1
	c0.3-4.1,1.9-6.8,4.2-10.2c0.6-1,1.3-1.9,1.9-2.9c0.6-0.9,1.3-1.9,1.9-2.9c0.5-0.8,1.1-1.6,1.6-2.4c1.6-2.4,3.3-4.8,4.9-7.2
	c7.3-10.6,14.5-21.3,21.7-32c6.9-10.2,13.8-20.4,20.8-30.5c-3.1-5.5-3.1-5.5-6.7-10.8c-0.5-0.7-1-1.3-1.5-2
	c-0.8-1.1-0.8-1.1-1.6-2.2c-5.2-7.2-10.4-14.4-15.4-21.8c-4.3-6.2-8.6-12.3-12.9-18.4c-4.2-5.8-8.3-11.6-12.4-17.5
	c-0.6-0.9-1.2-1.7-1.9-2.7c-2.2-3.2-4.5-6.4-6.6-9.7c-2.8-0.2-5.3-0.3-8.1-0.2c-0.8,0-1.5,0-2.3,0c-1.9,0-3.7,0.1-5.6,0.1
	c0,0.9,0.1,1.8,0.1,2.8c0.3,10.5-0.8,20.5-2.5,30.8c-3.3,20.1-4,39.9-3.9,60.2c0,2.4,0,4.8,0,7.1c0,30,1,60,2.2,90
	c0,0.8,0.1,1.6,0.1,2.5c0.2,3.8,0.3,7.7,0.5,11.5c0.4,9,0.5,18,0.5,27c-5.4,1.1-10.9,2.2-16.3,3.3c-2.2,0.4-4.4,0.9-6.6,1.3
	c-1.7,0.3-1.7,0.3-3.4,0.7c-1.1,0.2-2.1,0.4-3.2,0.6c-1,0.2-1.9,0.4-2.9,0.6c-1.5,0.3-3.1,0.7-4.6,1.1c-4.7,1-9.6,0.6-14.4,0.6
	c-1.1,0-2.2,0-3.4,0c-5.6,0-9.9-0.4-15.2-2.2c-3.9-0.3-7.7-0.3-11.6-0.3c-9.5-0.2-16.9-1.2-25.4-5.7c-0.8-0.4-1.5-0.8-2.3-1.2
	c-0.6-0.3-1.1-0.6-1.7-0.8c1.2-8.5,3.1-16.6,5.2-24.9c0.2-0.8,0.4-1.6,0.6-2.5c0.2-0.7,0.4-1.4,0.6-2.2c1.4-6.4,1.8-12.8,2-19.3
	c0.1-2.1,0.2-4.1,0.3-6.2c0.1-1.1,0.1-2.2,0.2-3.4c3.1-64.1,10.1-127.9,18.2-191.6c0.7-5.2,1.3-10.4,2-15.7
	c0.8-6.4,1.6-12.8,2.4-19.2c0.3-2.3,0.6-4.5,0.9-6.8c0.4-3,0.8-6.1,1.2-9.1c0.1-0.9,0.2-1.7,0.3-2.6c1.3-9.9,7.2-15.5,14.8-21.5
	c1.3-1,2.6-1.9,3.8-2.9c0.7-0.5,1.4-1,2.1-1.6c7-5.1,14.1-9.9,21.4-14.6c1.7-1.1,3.3-2.2,5-3.3c4.3-2.8,8.5-5.6,12.8-8.3
	c1.8-1.2,3.6-2.3,5.3-3.5c7.6-5,15.6-9,23.8-12.9c0.7-0.4,1.5-0.7,2.2-1.1c24.4-11.6,49.8-19.7,75.8-26.8c6-1.7,12-3.4,18-5.1
	c-0.9-0.7-0.9-0.7-1.7-1.4c-9.3-7.5-11.5-16.1-13.1-27.7c-1.1-10.1,2.1-18.7,5.8-27.9c-0.9-0.2-1.8-0.5-2.8-0.7
	c-8.5-3.4-12.4-16.4-16-24.2c-4.8-10.3-9.8-20.3-15.4-30.1c-0.5-1-1.1-1.9-1.6-2.9c-2.2-3.9-4.4-7.5-7.2-11.1
	c-0.7,0.4-1.3,0.8-2,1.2c-3,1.8-6.1,3.5-9.2,5.3c-1.1,0.6-2.1,1.2-3.2,1.9c-1.5,0.9-1.5,0.9-3.1,1.8c-0.9,0.5-1.9,1.1-2.8,1.6
	c-2.7,1.3-2.7,1.3-7.7,2.3c0-4.3,0-8.6,0-13c-2.7,1.1-2.7,1.1-5.4,2.2c-5.9,2.4-11.8,4.8-17.7,7.1c-3.6,1.4-7.2,2.9-10.8,4.3
	c-3.5,1.4-6.9,2.8-10.4,4.2c-1.3,0.5-2.6,1.1-4,1.6c-1.9,0.8-3.7,1.5-5.6,2.2c-1.1,0.4-2.1,0.8-3.2,1.3c-7.5,2.6-7.5,2.6-11,1.4
	c-30.3-20.5-49.7-58-69-88.3c-0.6-1-1.3-2-1.9-3c-5.3-8.5-10.1-17.2-15-25.9c-7.2-13-7.2-13-17.3-23.8c-7.9-6.7-9.8-12.7-10.6-22.8
	c-0.5-8-0.5-16.1-0.5-24.1c0-3.3,0-6.7,0-10c0-2.1,0-4.3,0-6.4c0-1.5,0-1.5,0-3c0-6,0.6-10.6,3.4-16c2.1-0.7,2.1-0.7,4-1
	c0.1-0.6,0.2-1.2,0.2-1.9c0.8-2.1,0.8-2.1,2.3-3.4c3.6-1.1,6.8-1.6,10.4-0.8c5.4,4.8,8,11.3,8.4,18.6c0.1,1.6,0.1,3.2,0.1,4.8
	c0.2,6.2,0.7,12,2,18.1c0.9,4.8,1.2,9.7,1.5,14.6c1-0.7,1-0.7,2-1.4c1.3-0.9,1.3-0.9,2.7-1.7c0.9-0.6,1.8-1.2,2.7-1.8
	c2.6-1.1,2.6-1.1,4.9-0.3c0.6,0.4,1.1,0.8,1.7,1.2c-0.5,4.6-1.8,8-4.1,12c-3.1,6.6-3.2,14.9-1.9,22c2,3,4.1,5,6.9,7.3
	c2.8,2.3,4.9,4.9,7.2,7.8c4.8,5.9,10,11.3,15.4,16.7c1.6,1.6,3.1,3.1,4.7,4.7c4.9,4.8,9.8,9.6,15,14.1c3,2.6,5.9,5.3,8.8,8.1
	c4.9,4.6,9.9,9.1,15,13.5c1.1,1,2.3,2,3.4,2.9c1.3,1.1,2.5,2.2,3.8,3.2c0.6,0.5,1.2,1,1.8,1.6c3.3,2.8,6.6,5.6,10,8.3
	c3.8-3.2,7.4-6.2,10.5-10c2.6-3.2,5.5-5.7,8.6-8.3c1.9-1.8,3.4-3.6,4.9-5.7c-1.1-1.5-2.2-3-3.4-4.4c-0.6-0.8-1.3-1.6-1.9-2.5
	c-1.6-2.2-1.6-2.2-3.7-3.1c0.1-1.7,0.1-1.7,1-4c2.3-1.6,4.5-2.9,6.9-4.2c0.6-0.4,1.3-0.7,2-1.1c4.8-2.6,4.8-2.6,7.1-2.6
	c0.1-0.7,0.3-1.5,0.4-2.2c0.5-2.3,1-4.5,1.6-6.8c-0.6-0.3-1.2-0.5-1.8-0.8c-7-3.9-9.4-12-12-19c-1.3-3.5-3-6.6-4.9-9.8
	c-1.6-2.8-3.1-5.7-4.6-8.6c-0.5-1-1-1.9-1.6-3c-1.2-2.9-1.4-4.8-1.1-7.8c1.6-0.8,1.6-0.8,4-1c2.8,1.6,2.8,1.6,6,4
	c1.2,0.9,2.5,1.8,3.7,2.6c0.6,0.4,1.2,0.9,1.9,1.3c0.7,0.5,0.7,0.5,1.4,1c-0.1-1.3-0.3-2.5-0.4-3.9c-1-9.4-1.8-18.9-2.3-28.3
	c0-0.8-0.1-1.7-0.1-2.5c-0.3-7-0.6-14.3,2.5-20.7c3.8-4.1,8.8-6.1,14.4-6.6c0.7,0.7,1.3,1.3,2,2c0.7,0.1,1.3,0.2,2,0.4
	c2,0.6,2,0.6,3.2,2.3c3.2,8.2,4.4,16.7,5.6,25.3c0.2,1.6,0.5,3.3,0.7,4.9c0.5,3.4,1,6.8,1.5,10.2c0.6,4.4,1.3,8.7,1.9,13.1
	c0.6,4.2,1.2,8.4,1.8,12.5c0.1,0.8,0.2,1.6,0.4,2.4c0.3,2.2,0.6,4.5,1,6.7c0.2,1.3,0.4,2.6,0.6,3.9c0.4,3.2,0.4,3.2,0.4,7.2
	c8.3-3.4,16.2-7,23.9-11.5c11.9-6.9,24.6-12.3,37.2-17.9c3.2-1.4,6.4-2.9,9.6-4.4c1.2-0.5,2.3-1.1,3.5-1.7c1-0.5,2.1-1,3.1-1.5
	c2.6-1.1,2.6-1.1,5.6-1.1c0.1-0.7,0.2-1.4,0.3-2.1c0.9-3.5,2.3-5.9,4.2-8.9c0.3-0.6,0.7-1.1,1.1-1.7c1.1-1.8,2.2-3.6,3.4-5.3
	c1.1-1.8,2.2-3.6,3.3-5.3c1-1.6,2-3.2,3-4.8c3.2-4.8,3.2-4.8,2.9-10.3c-0.2-0.7-0.4-1.4-0.6-2.1c-2-7.9-1.7-16.4-1.7-24.5
	c0-0.8,0-1.7,0-2.6c0-6.1,0-6.1,1.1-8.3c-1.9,0.2-1.9,0.2-3.8,0.4c-1.7,0.2-3.4,0.4-5.1,0.6c-1.2,0.1-1.2,0.1-2.5,0.3
	c-14.3,1.6-14.3,1.6-19.4-0.4c-3.4-3.1-4.9-6.5-5.3-11.1c-0.1-3.2,0.2-5.8,1.2-8.9c-0.3-0.3-0.7-0.7-1-1c0.1-2.5,0.2-5,0.4-7.6
	c0.1-0.7,0.1-1.4,0.2-2.2c0.1-1.8,0.3-3.5,0.4-5.3c-1.6,0.5-1.6,0.5-3.3,1c-3.6,0.9-5.2,1-8.7,0c-0.6-4.2,0-6.5,2.4-9.8
	c4-4.9,8.3-9.6,12.6-14.2c-0.3-0.7-0.6-1.4-0.9-2.1c-1.2-3-2.2-6-3.3-9c-0.5-1.6-0.5-1.6-1.1-3.1c-0.8-2.7-0.8-2.7-0.8-5.7
	c-0.6,0.1-1.1,0.2-1.7,0.3c-5.8,1-11.7,2-17.5,3.1c-2.2,0.4-4.4,0.8-6.5,1.1c-3.1,0.6-6.3,1.1-9.4,1.6c-1,0.2-1.9,0.3-2.9,0.5
	c-14.2,2.5-14.2,2.5-20.8,2.5c-0.7,0-1.5,0-2.2,0c-1.9-0.2-1.9-0.2-3.9-2.2c-0.6-7.2-0.6-7.2,1.1-9.4c2.7-2.2,5.7-3.2,8.9-4.4
	c1.1-0.4,1.1-0.4,2.1-0.8c8.7-3.1,17.7-5.4,26.7-7.7c1.7-0.4,3.4-0.9,5.2-1.3c5.7-1.5,11.4-2.9,17.1-4.3c-0.6-6.9-1.8-13.5-3.3-20.3
	c-0.3-1.6-0.3-1.6-0.7-3.2c-0.7-3.3-1.4-6.6-2.1-9.9c-0.7-3.3-1.4-6.7-2.1-10c-0.4-2.1-0.9-4.1-1.3-6.2c-0.3-1.4-0.3-1.4-0.6-2.8
	c-0.2-0.8-0.3-1.6-0.5-2.5c-0.4-2.1-0.4-2.1-0.4-5.1c20.9-4.7,42-8.6,63.1-12.4c6.5-1.2,13-2.3,19.5-3.5c2.2-0.4,4.5-0.8,6.7-1.2
	c1.4-0.2,2.7-0.5,4.1-0.7c1.2-0.2,2.4-0.4,3.6-0.6c1.7-0.3,3.5-0.7,5.2-1.1C1254.1,895.7,1257,895.9,1260,896z M1339,1235
	c-0.2,1.7-0.4,3.5-0.6,5.3c-0.1,1.1-0.2,2.2-0.3,3.4c-0.1,1.2-0.2,2.4-0.3,3.7c-0.1,1.2-0.2,2.5-0.3,3.8c-0.3,3.3-0.6,6.7-0.8,10
	c-0.4,4.7-0.8,9.4-1.2,14c-0.2,2.5-0.4,5-0.6,7.5c-0.1,1.1-0.2,2.3-0.3,3.4c-0.1,1-0.2,2-0.3,3c-0.3,3-0.8,5.9-1.3,8.9
	c-1.1,12.9,0.5,24.6,3.8,37c4.1,15.9,4.1,31,0.2,46.9c-0.6,2.4-1.2,4.7-1.7,7.1c-0.4,1.5-0.4,1.5-0.8,3.1c-0.5,3-0.3,5,0.6,7.9
	c1.8,2.3,1.8,2.3,4,4.5c11.8,12.8,17.6,26.4,23.8,42.5c1.3,3.1,2.7,6,4.2,9c2.6-1,5.3-2,8-3c0.1-3.7,0.2-7.3,0.4-11
	c0-1.2,0.1-2.3,0.1-3.6c0.2-6.8,0.4-13.5,0.6-20.3c0.1-2.9,0.2-5.9,0.3-8.8c0-0.7,0-1.5,0.1-2.3c0.3-9.8,0.7-19.7,1.1-29.5
	c2-44.4,0.4-87.8-3.9-132.1c-0.1-1.2-0.2-2.3-0.3-3.5c-0.3-2.7-0.8-5.4-1.4-8.1c-4.5,0-9.1,0-13.6-0.1c-1.5,0-3.1,0-4.6,0
	c-2.2,0-4.4,0-6.6,0c-0.7,0-1.4,0-2.1,0C1341.7,1233.6,1341.7,1233.6,1339,1235z M1384,1511c-0.2,0.6-0.5,1.3-0.7,1.9
	c-2.6,6.5-5.1,13.1-7.7,19.6c-1,2.4-1.9,4.9-2.9,7.3c-1.4,3.5-2.8,7-4.1,10.5c-0.6,1.6-0.6,1.6-1.3,3.3c-0.4,1-0.8,2-1.2,3.1
	c-0.4,0.9-0.7,1.8-1.1,2.7c-0.7,1.7-1.4,3.5-2.1,5.2c-1.1,3-0.9,4.3,0.1,7.3c1.4,2.3,2.8,4.5,4.4,6.8c0.9,1.3,1.8,2.6,2.7,4
	c0.5,0.7,0.9,1.4,1.4,2.1c3.1,4.6,6,9.2,9,13.9c1.1,1.8,2.3,3.5,3.5,5.3c0.3,0,0.7,0,1,0c0-30.7,0-61.4,0-93
	C1384.7,1511,1384.3,1511,1384,1511z M1182,1573.1c-0.8,0.1-1.6,0.2-2.4,0.3c-2.6,0.4-5.1,0.8-7.7,1.1c-1.8,0.3-3.6,0.5-5.4,0.8
	c-4.7,0.7-9.5,1.4-14.2,2.1c-4.8,0.7-9.6,1.4-14.3,2.1c-21.5,3.2-21.5,3.2-43,6.4c3.9,6,8,11.8,12.5,17.4
	c4.9,6.3,9.8,12.7,14.5,19.1c5.2,7.1,10.5,14,15.9,20.9c5.8,7.4,11.5,15,17.1,22.6c2.8-2.6,5-5.2,7-8.5c0.6-0.9,1.1-1.8,1.7-2.7
	c0.6-0.9,1.2-1.9,1.8-2.8c1.2-2,2.5-4,3.7-5.9c0.6-1,1.3-2,1.9-3c1.8-2.9,3.7-5.7,5.6-8.6c0.6-0.9,1.2-1.8,1.8-2.7
	c1.1-1.7,2.2-3.3,3.3-5c6.5-9.8,8.2-20.3,10.4-31.7c0.5-2.5,1-5,1.4-7.5c0.3-1.6,0.6-3.2,0.9-4.8c0.2-1.1,0.2-1.1,0.4-2.3
	c0.6-2.9,1-5.6,1-8.6C1191.2,1571.9,1186.7,1572.4,1182,1573.1z"/>
<path class="st0" d="M652,2142c3.5,0.3,7.1,1.1,10.6,1.7c1,0.2,1.9,0.3,2.9,0.5c5.8,1,11.5,2.3,17.2,3.8c8.4,2.2,16.9,3.7,25.5,5.2
	c2.9,0.5,5.8,1,8.7,1.5c1.3,0.2,2.5,0.4,3.8,0.7c3.3,0.7,3.3,0.7,5.8,1.7c3.6,1.4,7.3,1.9,11.1,2.5c1.7,0.3,3.3,0.6,5,0.8
	c2.6,0.4,5.2,0.9,7.8,1.3c2.5,0.4,5,0.8,7.5,1.3c1.2,0.2,1.2,0.2,2.4,0.3c2.2,0.4,2.2,0.4,5.9,1.8c2,3.5,2,3.5,3,7
	c0.4,1.4,0.4,1.4,0.8,2.8c0.3,1.3,0.3,1.3,0.7,2.6c0.8,3.3,1.8,6.6,2.9,9.8c2,6,3.7,12,5.3,18.1c1.1,4,2.3,7.9,3.8,11.8
	c1.8,4.6,3,9.2,4.2,14c0.2,0.9,0.4,1.7,0.7,2.6c0.5,2.1,1.1,4.2,1.6,6.4c1,0,2,0,3,0c0.3-0.8,0.3-0.8,0.5-1.6
	c5.1-15.6,5.1-15.6,7.9-19.1c2.4-3.3,3.7-7.1,5.2-10.9c0.6-1.5,1.2-3.1,1.9-4.6c0.3-0.7,0.5-1.4,0.8-2c0.7-1.7,0.7-1.7,1.7-3.7
	c0.7,0,1.3,0,2,0c0.1-1,0.1-1,0.3-2c0.9-3.8,2.4-7.2,4-10.7c0.5-1.1,0.5-1.1,0.9-2.1c2.3-5.2,4.9-10.2,7.8-15.1
	c5.2,0.6,9.1,2.3,13.6,4.7c1.4,0.7,2.8,1.5,4.3,2.2c0.7,0.4,1.4,0.7,2.1,1.1c6.9,3.6,13.8,7.1,21,10c0,0.7,0,1.3,0,2
	c1.3,0.4,2.5,0.8,3.8,1.2c5.6,1.9,10.9,4.3,16.2,6.8c0,0.7,0,1.3,0,2c1,0.1,1,0.1,2,0.3c3.8,0.9,7.1,2.6,10.5,4.4
	c1.4,0.7,2.9,1.5,4.3,2.2c1.1,0.5,1.1,0.5,2.1,1.1c2.9,1.5,5.8,2.9,8.7,4.4c1.8,0.9,3.6,1.8,5.4,2.7c1.5,0.7,1.5,0.7,3,1.5
	c1,0.5,2,1,3,1.5c0.9,0.4,1.7,0.8,2.6,1.2c2.4,1.8,2.4,1.8,3.1,4.8c0,1.3,0.1,2.6,0.1,3.9c0,1.1,0,1.1,0.1,2.2
	c0.1,2.6,0.1,5.2,0.1,7.9c0,1.5,0,1.5,0,3c0.1,7.8,0.2,15.6,0.2,23.4c0,3.5,0,7,0.1,10.6c0,6,0.1,12.1,0.1,18.1
	c0.1,9.5,0.1,19,0.2,28.5c0,1.6,0,3.2,0,4.8c0,2.4,0,4.8,0,7.3c0,4.9,0.1,9.8,0.1,14.7c0.2,32.2,0.5,64.4,0.7,96.5
	c0,4,0.1,7.9,0.1,11.9c0.1,14.4,0.2,28.8,0.4,43.2c-35.2-2.3-35.2-2.3-51.2-3.4c-1.8-0.1-3.6-0.3-5.5-0.4c-2.7-0.2-5.4-0.4-8.1-0.6
	c-0.8-0.1-1.6-0.1-2.5-0.2c-5.6-0.4-5.6-0.4-6.7-1.5c-2.3-0.4-4.7-0.7-7-1c-0.6-15.9-1.1-31.7-1.3-47.6c0-0.7,0-1.5,0-2.2
	c-0.1-6.8-0.2-13.6-0.2-20.3c0-3.8-0.1-7.5-0.1-11.3c0-2.1,0-4.2-0.1-6.3c0-1.3,0-2.5-0.1-3.8c0-1.7,0-1.7,0-3.3
	c-0.1-3.1-0.1-3.1-0.7-6c-0.6-4-0.7-7.8-0.7-11.8c0-0.8,0-1.7,0-2.6c0-2.8-0.1-5.6-0.1-8.4c0-1.9,0-3.9-0.1-5.8
	c-0.1-5.1-0.1-10.2-0.2-15.3c-0.1-5.2-0.1-10.4-0.2-15.6c-0.1-10.2-0.2-20.4-0.3-30.6c-0.8,0.8-0.8,0.8-1.6,1.6
	c-1.1,1.1-1.1,1.1-2.2,2.2c-0.7,0.7-1.4,1.4-2.1,2.1c-7.2,7-7.2,7-10.1,7c-0.3,1-0.7,2-1,3c-2,1.8-2,1.8-4.5,3.7
	c-5,3.9-9.8,8.1-14.5,12.3c-7.1,6.3-7.1,6.3-10.7,9.1c-2.4,1.8-2.4,1.8-4.5,4.1c-4.1,4.1-8.5,8-12.8,11.8c-0.6,0.6-1.2,1.1-1.9,1.7
	c-3.8,3.3-3.8,3.3-7.1,3.3c-1.6-1.7-1.6-1.7-3.3-4c-0.6-0.8-1.2-1.6-1.8-2.5c-0.6-0.8-1.2-1.7-1.9-2.5c-0.6-0.8-1.2-1.5-1.8-2.3
	c-4.2-5.4-4.2-5.4-4.2-7.7c-0.7,0-1.3,0-2,0c-1.5-1.9-1.5-1.9-3.2-4.4c-2.9-4.3-6-8.4-9.2-12.4c-1.5-2-3-4-4.4-6.1
	c-1.9-3-1.9-3-4.2-4c-1.5-2.3-2.7-4.6-4-7c-3.3,8.9-6.3,17.9-9.1,27c-2.8,8.9-2.8,8.9-4.5,12.7c-1.8,4.1-3,8.2-4.3,12.5
	c-1.7,5.4-3.4,10.7-5.7,15.9c-3.2,7.4-5.3,15.1-7.4,22.9c-0.7,0-1.3,0-2,0c-0.3,1.3-0.5,2.6-0.8,3.9c-1.1,4.9-2.5,9.7-4.1,14.5
	c-0.3,0.8-0.5,1.7-0.8,2.5c-1.6,4.8-3.3,9.6-5.3,14.2c-1.5,4-2.8,8.2-4.1,12.3c-1.8,5.7-3.6,11.2-5.9,16.7
	c-1.9,4.9-3.4,9.9-4.9,14.9c-1.1,3.5-2.2,6.9-3.7,10.3c-2.4,5.6-4.1,11.4-5.8,17.2c-1.7,5.5-3.6,10.9-5.8,16.2
	c-0.7,1.8-1.3,3.6-1.9,5.4c-3.2,4.4-8,5.7-12.9,7.7c-2,0.9-4.1,1.7-6.1,2.6c-1,0.4-2,0.8-3,1.3c-3.1,1.3-6.2,2.7-9.3,4.1
	c-3.2,1.4-6.4,2.7-9.5,4.1c-3.7,1.6-7.3,3.1-10.9,5c-4.4,2.3-8.9,4-13.5,5.8c-5.8,2.3-11.4,4.7-17,7.3c-0.8,0.4-1.6,0.7-2.4,1.1
	c-0.7,0.3-1.4,0.7-2.2,1c-1.9,0.7-1.9,0.7-4.9,0.7c0,0.7,0,1.3,0,2c-0.6,0.2-1.1,0.4-1.7,0.7c-2.6,1-5.2,2.1-7.8,3.1
	c-0.9,0.3-1.8,0.7-2.7,1.1c-4.8,1.9-9.4,3.9-13.9,6.2c-3.2,1.6-6.4,2.9-9.7,4.2c-0.7,0.3-1.3,0.5-2,0.8c-2.9,1.2-5.1,1.9-8.2,1.9
	c0,0.7,0,1.3,0,2c-2.4,1-4.9,2-7.3,3c-0.7,0.3-1.4,0.6-2.1,0.9c-3,1.2-5.3,2.1-8.6,2.1c0,0.7,0,1.3,0,2c-1,0-2,0-3,0
	c0.7-8.9,3.4-17.3,6.9-25.6c2.1-5,3.6-10.2,5.1-15.4c1.7-5.9,3.5-11.6,5.9-17.2c1.9-4.8,3.3-9.8,4.9-14.8c1.3-4.3,2.8-8.6,4.4-12.8
	c1.6-4.3,3-8.6,4.5-13c0.3-1,0.7-2.1,1-3.1c3-9.1,5.8-18.3,8.6-27.5c1.5-5.1,3.3-9.7,5.7-14.6c1.3-3.8,2.4-7.6,3.5-11.4
	c1.9-6.4,3.9-12.4,6.5-18.6c1.5-4.7,2.9-9.5,4.3-14.3c1.7-5.6,3.5-10.9,5.7-16.3c1.6-4.1,2.8-8.4,4-12.6c1.7-5.8,3.5-11.3,5.9-16.8
	c1-2.9,1.9-5.9,2.8-8.9c2-6.4,4-12.7,6.3-18.9c2.2-6.2,4.2-12.4,5.8-18.8c0.9-2.7,1.8-5.1,3-7.6c2.2-4.8,3.7-9.6,5.1-14.7
	c1.4-5.1,3-10.1,5-15c2.4-5.9,4.1-12.1,5.7-18.3c1.4-5.1,3.1-9.7,5.3-14.5c1.7-4,2.9-8.2,4-12.4c2.6-9,2.6-9,4.4-13.3
	c2.5-5.8,4.1-11.8,5.8-17.9c1.7-5.6,3.5-10.9,5.7-16.3c1.9-5,3.3-10.2,4.8-15.3c1.4-4.7,3-8.8,5.2-13.1c1-2.9,1.8-5.9,2.6-8.8
	C650.9,2143.1,650.9,2143.1,652,2142z"/>
<path class="st0" d="M1481,2129c6.6-0.4,12.5,1.1,18.9,2.8c1,0.3,2.1,0.5,3.1,0.8c4.5,1.1,8.9,2.3,13.2,3.8
	c6.8,2.3,13.8,3.9,20.7,5.6c15.7,3.8,15.7,3.8,22.6,6.3c6.8,2.2,13.8,3.5,20.8,5.1c10.6,2.5,10.6,2.5,14.5,4.1
	c6.1,2.5,12.6,3.7,19,5.2c1.4,0.3,2.7,0.6,4.1,1c3.3,0.8,6.6,1.6,9.9,2.3c0,0.7,0,1.3,0,2c1.5,0.1,1.5,0.1,3.1,0.3
	c6,0.8,11.8,2.2,17.7,3.7c2,0.5,4,1,6,1.4c1.3,0.3,2.5,0.6,3.8,0.9c1.7,0.4,1.7,0.4,3.5,0.8c6.4,1.8,6.4,1.8,8,4.5
	c0.2,0.7,0.5,1.3,0.7,2c0.3,0.7,0.6,1.5,0.8,2.3c0.3,0.8,0.6,1.6,0.9,2.4c0.6,1.6,1.2,3.3,1.8,4.9c0.3,0.8,0.6,1.6,0.9,2.4
	c1.8,4.8,3.8,9.5,5.8,14.2c0.9,2.1,1.7,4.1,2.6,6.2c1.4,3.4,2.9,6.8,4.4,10.1c2.1,4.6,3.9,9.3,5.8,14c1.6,4,3.2,8,4.9,12
	c6.4,15.2,6.4,15.2,6.4,18.8c0.7,0,1.3,0,2,0c0.2,0.5,0.4,1.1,0.6,1.7c0.9,2.5,1.8,5,2.7,7.5c0.3,0.9,0.6,1.7,0.9,2.6
	c1.6,4.4,3.3,8.2,5.8,12.2c1.1,2.6,2.1,5.3,3.1,7.9c0.3,0.7,0.5,1.4,0.8,2.1c1.5,4,2.5,7.7,3.1,12c0.7,0,1.3,0,2,0
	c1.2,2.9,2.3,5.7,3.4,8.6c0.3,0.8,0.7,1.6,1,2.4c1.7,4.3,3,8.3,3.6,12.9c0.7,0,1.3,0,2,0c0.2,0.5,0.4,1.1,0.6,1.6
	c0.9,2.5,1.8,4.9,2.7,7.4c0.5,1.3,0.5,1.3,0.9,2.5c1.7,4.6,3.6,9,5.8,13.4c1.9,3.9,3.3,7.9,4.7,11.9c0.3,0.9,0.6,1.7,1,2.6
	c2.3,6.3,2.3,6.3,2.3,8.5c0.7,0,1.3,0,2,0c0.4,1.2,0.8,2.4,1.3,3.6c3.1,8.7,6.4,17.3,10.2,25.8c2.3,5.2,4.4,10.5,6.4,15.8
	c1.2,3.2,2.6,6.3,4,9.4c1.4,3.3,2.7,6.6,4,9.9c2.1,5.4,4.5,10.8,6.9,16.1c1.5,3.3,2.9,6.8,4.2,10.2c0.9,2.2,1.8,4.3,2.8,6.5
	c1.9,4.2,3.5,8.5,5.1,12.9c1.8,4.9,3.7,9.8,5.9,14.6c1.4,3.2,2.7,6.5,4,9.8c1.8,4.5,3.6,9,5.7,13.4c6.4,13.8,6.4,13.8,6.4,19.2
	c0.7,0,1.3,0,2,0c0.9,2.3,1.9,4.7,2.8,7c0.4,1,0.4,1,0.8,2.1c1.3,3.3,2.6,6.7,3.8,10c1.7,4.8,4.1,9.3,6.3,13.8
	c1.2,3,1.3,4.9,1.2,8.1c-11.9-0.6-23.7-1.4-35.5-2.3c-2.6-0.2-5.2-0.4-7.7-0.6c-1.6-0.1-3.3-0.3-4.9-0.4c-0.8-0.1-1.5-0.1-2.3-0.2
	c-5.3-0.4-5.3-0.4-6.4-1.5c-2.2-0.3-4.4-0.5-6.6-0.6c-0.7-0.1-1.4-0.1-2.1-0.2c-2.3-0.2-4.6-0.4-6.9-0.6c-1.6-0.1-3.2-0.3-4.8-0.4
	c-4.2-0.3-8.4-0.7-12.6-1c-6.7-0.5-13.5-1.1-20.2-1.6c-2.3-0.2-4.7-0.4-7-0.6c-1.5-0.1-2.9-0.2-4.4-0.4c-1.3-0.1-2.5-0.2-3.8-0.3
	c-3.5-0.3-7-0.8-10.6-1.3c-1-4.1-2-8.1-3-12.2c-0.3-1.4-0.7-2.8-1-4.1c-0.5-2-1-4-1.5-6c-0.3-1.2-0.6-2.4-0.9-3.6
	c-0.6-3.1-0.6-3.1-0.6-7.1c-0.7,0-1.3,0-2,0c-1-4.1-2-8.2-2.9-12.3c-0.3-1.4-0.7-2.8-1-4.2c-1.8-7.5-3.5-14.8-4.1-22.5
	c-0.7,0-1.3,0-2,0c-0.3-1.1-0.5-2.2-0.8-3.3c-1-4.1-2-8.1-2.9-12.2c-0.4-1.8-0.8-3.5-1.3-5.3c-0.6-2.5-1.2-5.1-1.8-7.6
	c-0.2-0.8-0.4-1.6-0.6-2.4c-0.9-3.9-2.1-7.5-3.6-11.2c-0.6-2-1.1-4.1-1.6-6.2c-0.3-1.2-0.6-2.4-0.9-3.6c-0.3-1.3-0.6-2.5-0.9-3.8
	c-2-8.5-4.1-17-6.3-25.4c-1.8-6.6-3.5-13.2-5.2-19.9c-0.2-0.8-0.4-1.7-0.7-2.6c-0.2-0.8-0.4-1.6-0.6-2.4c-0.2-0.7-0.4-1.4-0.5-2.1
	c-0.4-2-0.4-2-0.4-6c-0.7,0-1.3,0-2,0c-0.2-0.9-0.4-1.8-0.6-2.7c-0.8-3.3-1.5-6.6-2.3-9.8c-0.3-1.4-0.7-2.8-1-4.2
	c-0.5-2-0.9-4.1-1.4-6.1c-0.3-1.2-0.6-2.5-0.9-3.7c-0.3-1.1-0.6-2.3-0.9-3.4c-0.3-1.1-0.6-2.2-0.8-3.3c-0.9-2.8-0.9-2.8-3.1-3.8
	c-0.8-0.2-1.5-0.4-2.3-0.6c-0.8-0.2-1.7-0.5-2.6-0.7s-1.8-0.4-2.7-0.7c-1.8-0.5-3.7-1-5.5-1.5c-0.9-0.2-1.7-0.5-2.7-0.7
	c-2.6-0.7-5-1.6-7.5-2.7c-7.3-3.1-15.2-4.9-22.9-6.9c0.1,0.6,0.1,1.3,0.2,2c0.7,7.2,1.1,14.4,1.4,21.6c0.1,1.8,0.1,1.8,0.1,3.6
	c0.1,3.3,0.3,6.5,0.4,9.8c0.1,3.4,0.3,6.9,0.4,10.3c0.2,5.8,0.5,11.5,0.7,17.3c0.3,6.6,0.5,13.3,0.8,19.9c0.3,6.4,0.5,12.9,0.8,19.3
	c0.1,2.7,0.2,5.4,0.3,8.2c0.2,3.8,0.3,7.6,0.5,11.4c0,1.1,0.1,2.2,0.1,3.4c0.3,6.7,0.4,13.4,0.3,20.2c-2,0-4,0-6,0
	c-0.3-0.3-0.7-0.7-1-1c-2.2-0.4-4.5-0.6-6.7-0.9c-0.7-0.1-1.4-0.2-2.1-0.3c-1.5-0.2-3.1-0.4-4.6-0.5c-2.4-0.3-4.9-0.6-7.3-0.9
	c-5.2-0.6-10.4-1.2-15.6-1.9c-6-0.7-12-1.4-18-2.1c-2.4-0.3-4.8-0.6-7.2-0.8c-7.5-0.9-15-1.9-22.4-3.6c-1.2-3.7-1.4-7.3-1.7-11.1
	c-0.1-1.6-0.3-3.3-0.4-4.9c-0.2-2.6-0.4-5.1-0.6-7.7c-0.2-2.5-0.4-4.9-0.6-7.4c-0.1-0.8-0.1-1.5-0.2-2.3c0-3.6,0-3.6-1.5-6.5
	c-0.3-3-0.6-5.9-0.8-8.9c-0.1-0.9-0.2-1.9-0.2-2.8c-0.3-3.1-0.5-6.2-0.8-9.4c-0.2-2.2-0.4-4.3-0.5-6.5c-0.4-4.6-0.7-9.1-1.1-13.7
	c-0.5-5.8-0.9-11.6-1.4-17.5c-0.4-4.5-0.7-9-1.1-13.5c-0.2-2.1-0.4-4.3-0.5-6.4c-0.2-3-0.5-6-0.7-9.1c-0.1-0.9-0.1-1.8-0.2-2.7
	c-0.5-6.2-0.6-12.4-0.5-18.6c-0.7,0-1.3,0-2,0c-0.1-0.9-0.1-1.8-0.2-2.7c-0.7-8.6-1.3-17.1-2-25.7c-0.3-4.4-0.7-8.8-1-13.2
	c-1.4-17.8-2.8-35.6-4.4-53.4c-0.2-1.9-0.2-1.9-0.3-3.9c-0.6-6.3-1.3-12.6-2.1-18.9c-1.1-8.7-1.8-17.4-2.5-26.1
	c-0.1-1.7-0.3-3.3-0.4-5c-0.3-3.4-0.5-6.9-0.8-10.3c-0.3-4.4-0.7-8.8-1-13.2c-0.3-4.2-0.7-8.4-1-12.6c-0.1-0.8-0.1-1.6-0.2-2.4
	c-0.2-2.3-0.4-4.5-0.5-6.8c-0.2-1.9-0.2-1.9-0.3-3.9C1481.1,2132.3,1481,2130.7,1481,2129z M1583,2218c0.5,3.5,0.9,7,1.4,10.6
	c0.1,1.1,0.3,2.2,0.4,3.3c0.7,5.2,1.7,10.1,3.2,15.2c0.4,2.6,0.8,5.2,1.1,7.8c0.4,4.8,0.4,4.8,1.9,9.2c10.9,0,21.8,0,33,0
	c-0.3-5.2-0.6-10.4-0.9-15.7c-0.1-1.6-0.2-3.2-0.3-4.9c-0.1-1.3-0.2-2.6-0.2-4c-0.1-1.3-0.2-2.6-0.2-4c-0.4-5.8-0.8-11.7-1.3-17.5
	C1608.5,2218,1595.9,2218,1583,2218z"/>
<path class="st0" d="M1126,2144c1.5,1.7,2.5,3.5,3.6,5.5c1.4,2.6,3,5.1,4.6,7.6c0.9,1.4,0.9,1.4,1.9,2.9c0.9,1.5,0.9,1.5,1.9,3
	c2.4,3.7,4.8,7.5,7.2,11.2c0.6,0.9,1.2,1.9,1.8,2.9c3.1,4.9,6.1,9.8,9,14.9c2.1,3.5,4.3,7.1,6.8,10.3c1.2,1.7,1.2,1.7,1.2,4.7
	c0.7,0,1.3,0,2,0c0.5,1,1.1,2,1.6,3c0.7,1.3,1.4,2.6,2.2,3.9c0.4,0.6,0.7,1.3,1.1,1.9c2.1,3.7,2.1,3.7,4.9,6.9
	c0.4,0.4,0.8,0.9,1.2,1.3c-0.4,2.1-0.4,2.1-1,4c-7.7,1-15.3,2-23,3c-2.6,0.3-5.2,0.7-7.8,1c-3.8,0.5-7.5,1-11.3,1.5
	c-1.2,0.2-2.3,0.3-3.5,0.5c-6.2,0.8-12.2,1.2-18.4,1.1c0,0.7,0,1.3,0,2c-1.2,0.1-1.2,0.1-2.4,0.3c-7.4,0.9-14.9,1.8-22.3,2.7
	c-3.8,0.5-7.6,0.9-11.5,1.4c-3.7,0.4-7.4,0.9-11.1,1.4c-1.4,0.2-2.8,0.3-4.2,0.5c-2,0.2-3.9,0.5-5.9,0.7c-1.1,0.1-2.2,0.3-3.4,0.4
	c-3.5,0.6-6.8,1.6-10.3,2.5c-3.4,0.1-3.4,0.1-6,0c0,1.1,0.1,2.2,0.1,3.4c0.6,22.9,1.1,45.7,0.9,68.6c0.6,0.1,1.2,0.1,1.9,0.2
	c5.7,0.5,11.3,1.3,17,2.2c1.1,0.2,1.1,0.2,2.2,0.3c4.2,0.7,8.2,1.6,12.3,2.7c9.6,2.5,19.4,4,29.2,5.6c2.6,0.4,5.2,0.9,7.8,1.4
	c0.8,0.1,1.6,0.3,2.4,0.4c3.2,0.6,6.2,1.2,9.3,2.2c4,1.3,8,2,12.1,2.7c0.9,0.2,1.7,0.3,2.6,0.5c2.7,0.5,5.4,0.9,8.1,1.4
	s5.4,0.9,8.2,1.4c1.7,0.3,3.4,0.6,5.1,0.9c5.8,1,5.8,1,8,2.1c0.4,1.7,0.4,1.7,0.6,4c0.1,0.8,0.2,1.7,0.2,2.5
	c0.1,0.9,0.1,1.8,0.2,2.7c0.1,1.4,0.1,1.4,0.3,2.7c0.6,6.4,1.1,12.9,1.4,19.3c0.2,2.6,0.2,2.6,0.7,4.6c0.6,2.4,0.8,4.6,0.9,7.1
	c0.1,1,0.1,2,0.2,3c0.1,1.1,0.1,2.1,0.2,3.2c0.1,1.1,0.1,2.2,0.2,3.3c0.1,2.3,0.3,4.7,0.4,7c0.2,3.5,0.4,7.1,0.6,10.6
	c0.1,2.3,0.3,4.5,0.4,6.8c0.1,1,0.1,2.1,0.2,3.2c0.4,7,0.5,14,0.4,21c-3.7-0.7-7-1.6-10.5-2.9c-1.1-0.4-2.1-0.8-3.2-1.2
	c-1.6-0.6-1.6-0.6-3.3-1.2c-1.1-0.4-2.1-0.8-3.2-1.2c-5.4-1.9-10.7-4-16-6.2c-4.8-2-9.5-3.7-14.5-5.2c-0.7-0.2-1.4-0.4-2.1-0.7
	c-1.7-0.5-3.4-1-5.1-1.5c0-0.7,0-1.3,0-2c-0.7-0.1-1.5-0.3-2.2-0.4c-4.5-0.9-8.7-2.5-13-3.9c-0.9-0.3-1.8-0.6-2.7-0.9
	c-5.1-1.7-10-3.6-14.8-5.8c-3.6-1.6-7.4-2.8-11.2-3.9c-6.2-2-12.1-4.2-18-7c-1-0.3-2-0.7-3-1c0.4,3.5,0.9,6.7,1.9,10
	c1.5,5.1,2,10.3,2.7,15.5c0.1,1.1,0.3,2.2,0.4,3.3c0.5,3.5,0.9,7,1.4,10.5s0.9,7,1.4,10.5c0.3,2.2,0.6,4.4,0.9,6.5
	c0.8,5.6,1.7,11,3.2,16.5c4.7,1.1,9.5,2.2,14.2,3.4c1.6,0.4,3.2,0.8,4.8,1.1c2.3,0.6,4.6,1.1,7,1.6c1.1,0.3,1.1,0.3,2.2,0.5
	c3.9,0.9,7.9,1.7,11.9,2.3c0,0.7,0,1.3,0,2c1.1,0.1,2.3,0.2,3.5,0.4c4.4,0.6,8.7,1.6,13,2.7c0.7,0.2,1.5,0.4,2.2,0.6
	c1.8,0.5,3.5,0.9,5.3,1.4c0.1,7.4,0.3,14.8,0.4,22.1c0,2.5,0.1,5,0.1,7.5c0.3,16.8,0.5,33.6,0.4,50.4c-4.8-0.5-9.5-1-14.2-2.1
	c-0.9-0.2-1.8-0.4-2.7-0.6c-1.3-0.3-1.3-0.3-2.7-0.7c-0.9-0.2-1.8-0.4-2.7-0.6c-4.1-1-8.1-2-12.1-3.4c-7.6-2.6-15.5-4.2-23.3-5.9
	c-1.2-0.3-2.5-0.6-3.8-0.9c-1.1-0.3-2.2-0.5-3.4-0.8c-3.3-0.9-3.3-0.9-6.8-2.4c-3.6-1.5-7-2.5-10.8-3.3c-0.7-0.2-1.3-0.3-2-0.5
	c-2.1-0.5-4.1-0.9-6.2-1.4c-1.4-0.3-2.8-0.6-4.2-1c-3.4-0.8-6.9-1.6-10.3-2.3c0-0.7,0-1.3,0-2c-1.1-0.1-2.1-0.2-3.2-0.3
	c-5.8-0.7-11.5-2.2-17.1-3.7c-1.1-0.3-2.2-0.5-3.3-0.8c-8-2-8-2-10.3-3.2c-0.4-2.3-0.4-2.3-0.7-5.4c-0.1-1.2-0.2-2.3-0.3-3.5
	c-0.1-1.9-0.1-1.9-0.3-3.8c-0.1-1.3-0.2-2.6-0.3-3.9c-0.2-2.8-0.5-5.5-0.7-8.3c-0.3-3.5-0.6-7-0.9-10.5c-0.3-3.4-0.6-6.8-0.8-10.1
	c-0.1-1.2-0.2-2.5-0.3-3.8c-0.6-7.5-0.8-14.9-0.7-22.5c-0.7,0-1.3,0-2,0c-0.1-1.6-0.1-1.6-0.3-3.3c-0.8-10.4-1.6-20.8-2.4-31.1
	c-0.4-5.3-0.8-10.7-1.2-16c-0.4-5.2-0.8-10.3-1.2-15.5c-0.1-2-0.3-3.9-0.4-5.9c-0.8-10.5-1.6-21-2.6-31.4c-0.1-0.9-0.2-1.9-0.2-2.9
	c-0.1-0.9-0.2-1.7-0.2-2.6c-0.1-0.8-0.1-1.5-0.2-2.3c-0.2-2-0.2-2-1.3-3.9c-0.3-2.3-0.4-4.6-0.6-6.9c-0.1-0.7-0.1-1.4-0.2-2.2
	c-0.2-2.4-0.4-4.7-0.5-7.1c-0.1-1.7-0.3-3.4-0.4-5c-0.3-4.5-0.7-8.9-1-13.4c-0.3-4.4-0.7-8.8-1-13.1c-0.1-1.3-0.1-1.3-0.2-2.6
	c-0.6-8.7-1.3-17.4-2-26.1c-0.2-2.7-0.4-5.5-0.6-8.2c-0.3-4.5-0.7-9-1-13.5c-0.1-1.7-0.3-3.4-0.4-5.1c-0.2-2.3-0.4-4.7-0.5-7
	c-0.1-1-0.1-1-0.2-2.1c0-3.2,0-3.2-1.5-5.8c-0.3-2.7-0.5-5.3-0.8-8c-0.1-0.8-0.1-1.6-0.2-2.4c-0.2-2.6-0.4-5.1-0.6-7.7
	c-0.1-1.7-0.3-3.5-0.4-5.2c-0.3-4.2-0.7-8.5-1-12.7c1.8-0.5,3.5-1,5.3-1.5c1-0.3,2-0.6,3-0.8c2.7-0.7,2.7-0.7,5.7-0.7
	c0-0.7,0-1.3,0-2c0.9-0.2,1.8-0.5,2.8-0.7c3.5-0.9,6.9-1.7,10.4-2.6c1.5-0.4,3-0.7,4.5-1.1c10.6-2.6,10.6-2.6,21.1-5.9
	c5.3-1.7,10.7-3,16.1-4.4c1.2-0.3,2.4-0.6,3.7-1c1.2-0.3,2.3-0.6,3.5-0.9c1.1-0.3,2.1-0.5,3.2-0.8c2.8-0.6,2.8-0.6,6.8-0.6
	c0-0.7,0-1.3,0-2c0.9-0.2,1.8-0.5,2.8-0.7c3.5-0.9,6.9-1.7,10.4-2.6c1.5-0.4,3-0.7,4.5-1.1c10.6-2.6,10.6-2.6,21-5.9
	c6.4-2.1,12.9-3.6,19.4-5.3C1124.4,2143.6,1124.4,2143.6,1126,2144z"/>
<path class="st0" d="M1673,1754c4.4,0.8,7.4,2.2,11.2,4.4c0.9,0.5,0.9,0.5,1.8,1.1c1.3,0.8,2.6,1.5,3.9,2.3c2.1,1.3,4.3,2.5,6.4,3.8
	c6.1,3.6,12.3,7.2,18.3,10.9c3.4,2,6.8,3.9,10.3,5.6c0,0.7,0,1.3,0,2c1,0.4,1,0.4,2.1,0.8c3.1,1.3,6,2.7,9,4.1c1,0.5,2.1,1,3.1,1.5
	c2.7,1.5,2.7,1.5,4.2,3c1.8,1.7,3.4,2.3,5.7,3.3c3,1.9,3.8,2.8,4.7,6.3c0.4,4,0.5,8,0.6,12.1c0,1.5,0.1,3,0.2,4.5
	c0.1,4,0.2,7.9,0.3,11.9c0.1,4,0.2,8,0.4,12c0.1,4.5,0.3,9,0.4,13.6c0.2,7.4,0.5,14.8,1.2,22.2c0.2,3.1,0.3,6.1,0.2,9.2
	c-0.1,3.6-0.1,3.6,0.5,7.1c0.8,3.4,0.8,6.8,0.9,10.3c0,1.2,0,1.2,0.1,2.5c0.1,2.7,0.2,5.4,0.3,8.1c0.1,1.9,0.2,3.9,0.2,5.8
	c0.2,4.2,0.3,8.4,0.5,12.6c0.3,6.6,0.5,13.2,0.8,19.9c0.6,15.3,1.2,30.5,1.8,45.8c0.5,14,1.1,28,1.7,41.9c0.3,6.6,0.5,13.2,0.8,19.8
	c0.2,4.1,0.3,8.2,0.5,12.3c0.1,1.9,0.1,3.8,0.2,5.7c0.1,2.6,0.2,5.2,0.3,7.8c0,0.8,0.1,1.5,0.1,2.3c0.1,3.4,0.4,6.5,1.3,9.7
	c0.2,2.2,0.3,4.4,0.4,6.5c0,0.7,0.1,1.3,0.1,2c0.1,2.2,0.2,4.3,0.3,6.5c0.1,1.5,0.1,3.1,0.2,4.6c0.2,4.1,0.3,8.3,0.5,12.4
	c0.1,2.6,0.2,5.1,0.3,7.7c1.1,28.4,1.6,56.8,1.2,85.3c-1.3-1-2.6-1.9-3.9-2.9c-0.7-0.5-1.4-1.1-2.2-1.6c-2.1-1.6-4.1-3.3-6-5.1
	c-2.5-2.3-5.1-4.3-7.9-6.2c-1.5-1.1-1.5-1.1-3-2.2c0-0.7,0-1.3,0-2c-0.9-0.4-0.9-0.4-1.8-0.8c-7.2-3.8-13.2-9.9-19.4-15.1
	c-4.1-3.5-8.4-6.6-12.8-9.6c-2.7-1.9-4.8-4.2-7.1-6.5c-1.7-1.3-3.5-2.5-5.3-3.7c-2.5-1.8-4.6-4.1-6.7-6.3c-0.7-0.3-1.3-0.7-2-1
	c-0.4-12.4,0.7-24.7,1.7-37.1c0.3-3.6,0.6-7.2,0.8-10.8c0.2-2.3,0.4-4.6,0.5-6.9c0.1-1.1,0.2-2.2,0.2-3.3c0.1-1,0.2-2,0.2-3
	c0.1-0.9,0.1-1.7,0.2-2.7c0.3-2.2,0.3-2.2,1.3-5.2c0.2-1.4,0.3-2.7,0.4-4.1c0.1-0.8,0.1-1.7,0.2-2.5c0.1-1.4,0.1-1.4,0.2-2.7
	c0.1-1.4,0.1-1.4,0.2-2.9c0.3-3.2,0.5-6.3,0.7-9.5c0.2-2.2,0.4-4.4,0.5-6.6c0.5-5.8,0.9-11.6,1.4-17.5c0.4-4.7,0.7-9.4,1.1-14.1
	c0.8-9.8,1.6-19.6,2.3-29.4c0.1-1,0.2-1.9,0.2-2.9c0.3-4,0.6-7.9,0.9-11.9c0.4-6.7,1.2-13.1,2.3-19.7c0.8-5.3,1.2-10.7,1.5-16.1
	c0.1-1.2,0.2-2.3,0.3-3.5c0.3-3.6,0.5-7.3,0.8-10.9c0.2-2.5,0.4-5,0.6-7.5c0.4-6.1,0.9-12.1,1.3-18.2c-9.3,19.4-9.3,19.4-18.6,38.9
	c-1.9,4.1-3.9,8.2-6,12.2c-2.6,5.2-4.8,10.4-7,15.8c-1.3,2.7-2.6,4.7-4.4,7.1c-1,2.1-1,2.1-1.7,4.2c-0.6,1.9-0.6,1.9-1.3,3.8
	c-1,0-2,0-3,0c-1.4-1.8-1.4-1.8-2.9-4.4c-0.5-0.9-1-1.8-1.6-2.7c-6.6-12.1-6.6-12.1-6.6-14.9c-0.7,0-1.3,0-2,0
	c-0.3-0.5-0.5-1-0.8-1.5c-2.6-5-5.2-9.9-7.8-14.9c-0.9-1.7-1.8-3.4-2.7-5.1c-1.2-2.3-2.4-4.5-3.6-6.8c-0.4-0.7-0.7-1.4-1.1-2.1
	c-2.3-4.3-4.6-8.5-7-12.7c-1.3-2.3-2.7-4.7-4-7c-0.3,0-0.7,0-1,0c-0.3,1.9-0.3,1.9-0.7,3.9c-7.2,43.2-7.2,43.2-10.5,58.9
	c-2.3,11-3.9,22-5.7,33.1c-1,6.5-2,12.9-3.6,19.2c-2.6,10.6-3.9,21.5-5.6,32.3c-0.4,2.9-0.9,5.9-1.4,8.8c-0.1,0.9-0.3,1.8-0.4,2.7
	c-0.7,4.5-1.6,8.7-3.2,13.1c-0.4,1.6-0.8,3.2-1.1,4.9c-0.2,0.8-0.3,1.6-0.5,2.4c-0.2,0.9-0.2,0.9-0.4,1.8c-3.7-1.2-5.7-2.6-8.4-5.4
	c-2.2-2.1-4.7-3.8-7.1-5.6c-3.9-2.8-7.2-5.5-10.5-9c-1.1-0.9-2.2-1.8-3.3-2.7c-1.3-1.1-1.3-1.1-2.7-2.3c0-0.7,0-1.3,0-2
	c-0.6-0.3-1.1-0.6-1.7-0.8c-2.3-1.2-4.4-2.4-6.5-3.8c-0.7-0.4-1.4-0.9-2.1-1.4c-2.8-3.5-1.8-8.3-1.3-12.6c0.4-3,0.8-5.9,1.2-8.9
	c0.2-1.1,0.3-2.2,0.5-3.3c0.3-2.3,0.6-4.6,1-6.8c0.5-3.5,1-6.9,1.5-10.4c0.3-2.2,0.6-4.4,0.9-6.7c0.1-1,0.3-2.1,0.4-3.1
	c0.6-4,1.2-7.8,2.3-11.7c1.4-4.9,2-9.8,2.7-14.9c0.1-1.1,0.3-2.2,0.4-3.3c0.5-3.4,0.9-6.9,1.4-10.3c0.6-4.5,1.2-9.1,1.8-13.6
	c0.1-1,0.3-2.1,0.4-3.1c0.5-4,1.1-7.8,2.2-11.7c1.5-5.3,2.1-10.6,2.9-16c0.2-1.2,0.3-2.4,0.5-3.6c0.7-5.1,1.4-10.2,2.1-15.3
	c0.5-3.7,1-7.5,1.6-11.2c0.2-1.1,0.3-2.3,0.5-3.4c1-6.9,2.3-13.7,3.8-20.5c1.1-5.1,1.8-10.3,2.5-15.5c0.1-1.1,0.3-2.1,0.4-3.3
	c0.5-3.4,0.9-6.8,1.4-10.1c0.6-4.5,1.2-9,1.8-13.4c0.2-1.5,0.2-1.5,0.4-3.1c0.7-5.2,1.7-10.1,3.2-15.1c0.2-1.6,0.4-3.1,0.6-4.7
	c0.6-2.6,0.9-3.9,3-5.5c2.1-0.9,2.1-0.9,4.5-1.8c3.4-1.2,6.6-2.8,9.9-4.3c7-3.3,14-6.2,21.2-9.1c5-2,9.9-4.2,14.8-6.5
	c3.3-1.5,5.3-2.1,9.1-2.1c0.3,1,0.6,1.9,1,2.9c2.8,8.5,2.8,8.5,6,16.8c2.3,5.7,4.1,11.5,5.9,17.4c0.4,1.2,0.4,1.2,0.7,2.4
	c0.2,0.7,0.4,1.4,0.6,2.1c1.1,3.2,2.5,6.3,3.8,9.4c1-16.8,1.3-33.7,1.5-50.6c0.1-3.7,0.1-7.3,0.2-11
	C1672.8,1768.3,1672.9,1761.1,1673,1754z"/>
<path class="st0" d="M1310,2181c0.6,0.4,1.2,0.7,1.7,1.1c3,2.1,5.6,4.1,7.9,7c2.2,2.9,2.2,2.9,4.9,4.4c2.5,1.5,2.5,1.5,4.9,4.4
	c2.6,3.1,5.2,4.8,8.6,7.1c0.6,0.8,1.3,1.6,1.9,2.4c2.2,2.8,4.4,4.3,7.3,6.3c2.5,1.8,4.6,4,6.7,6.3c0.8,0.5,1.7,1.1,2.5,1.6
	c3.4,3.3,3.6,6.3,4.2,10.9c0.8,5.8,0.8,5.8,2.2,11.4c0.2,1.7,0.4,3.4,0.6,5.1c0.1,1,0.2,2.1,0.3,3.1c0.1,1.1,0.2,2.2,0.4,3.4
	c0.1,1.2,0.3,2.3,0.4,3.5c0.4,3.7,0.8,7.4,1.2,11.2c2.4,23.9,2.4,23.9,6,47.6c1.2,6.6,2,13.3,2.7,20c0.3,2.3,0.5,4.5,0.8,6.8
	c0.6,5.6,1.3,11.2,1.9,16.9c0.5,4.8,1.1,9.6,1.6,14.3c0.3,2.2,0.5,4.5,0.8,6.7c0.2,1.4,0.3,2.7,0.5,4.1c0.1,1.2,0.3,2.4,0.4,3.6
	c0.1,2.6,0.1,2.6,1.4,3.7c0.3,1.6,0.5,3.3,0.7,5c0.1,1.1,0.2,2.1,0.4,3.2c0.1,1.2,0.3,2.3,0.4,3.5s0.3,2.4,0.4,3.6
	c0.3,2.5,0.6,5,0.8,7.5c0.4,3.8,0.8,7.7,1.3,11.5c0.3,2.4,0.5,4.9,0.8,7.3c0.1,1.1,0.3,2.3,0.4,3.5c1.7,15.4,1.7,15.4-1.6,21.4
	c-0.8,1.5-0.8,1.5-1.6,3.1c-0.6,1.1-1.2,2.3-1.9,3.5c-1.5,2.9-2.9,5.7-4.3,8.6c-0.7,1.4-1.4,2.7-2.1,4.1c-0.5,1.1-1.1,2.2-1.6,3.3
	c-0.3,0.7-0.7,1.3-1,2c-0.7,0-1.3,0-2,0c-0.2,0.5-0.3,1.1-0.5,1.6c-1.9,6.1-4.2,11.9-7.5,17.4c-2.8,1.4-5.2,1.2-8.4,1.3
	c-0.7,0-1.3,0.1-2,0.1c-2.2,0.1-4.5,0.2-6.7,0.2c-1.6,0.1-3.2,0.1-4.8,0.2c-4.3,0.2-8.7,0.3-13,0.5c-4.5,0.2-9.1,0.3-13.6,0.5
	c-7.6,0.3-15.3,0.6-22.9,0.8c-9.8,0.4-19.6,0.7-29.4,1.1c-8.4,0.3-16.8,0.6-25.3,0.9c-1.8,0.1-3.6,0.1-5.4,0.2
	c-5.2,0.2-10.3,0.4-15.5,0.6c-1.6,0.1-3.1,0.1-4.7,0.2c-2.1,0.1-4.3,0.2-6.4,0.2c-1.8,0.1-1.8,0.1-3.6,0.1c-3.1,0.1-6.2,0.1-9.3,0.1
	c0-25.5,0-51-0.1-76.5c0-11.9,0-23.7,0-35.6c-0.1-63,0.2-125.9,1.1-188.9c0.6-0.2,1.2-0.4,1.8-0.6c0.8-0.3,1.6-0.5,2.4-0.8
	c1.2-0.4,1.2-0.4,2.4-0.8c2.2-0.7,4.4-1.5,6.6-2.3c7.4-2.5,15-4.1,22.5-5.9c5.8-1.4,11.4-2.9,17-4.9c5-1.6,10.1-2.7,15.1-3.9
	c1.1-0.3,2.2-0.5,3.4-0.8c1.1-0.3,2.1-0.5,3.3-0.8c1-0.2,1.9-0.5,2.9-0.7c2.6-0.5,2.6-0.5,6.6-0.5c0-0.7,0-1.3,0-2
	c4.1-1.1,8.1-2.1,12.2-3.1c1.4-0.3,2.8-0.7,4.1-1.1c2-0.5,4-1,6-1.5c1.2-0.3,2.4-0.6,3.6-0.9C1306.2,2179,1307.3,2179.2,1310,2181z
	 M1267,2288c0,51.1,0,102.3,0,155c14.2,0,28.4,0,43,0c0-51.1,0-102.3,0-155C1295.8,2288,1281.6,2288,1267,2288z"/>
<path class="st0" d="M741.6,1780.4c5.5,1,8,5.4,11.4,9.6c4.1,4.3,8.5,8.1,12.9,12c3.5,3.3,3.5,6.1,4,10.8c0.1,0.7,0.2,1.4,0.3,2.1
	c0.4,2.9,0.7,5.8,1,8.8c1,8.2,2.1,16.3,3.8,24.3c0.3,1.8,0.6,3.5,0.9,5.3c0.1,0.8,0.2,1.6,0.4,2.4c-0.3,3.3-2.1,4.8-4.2,7.3
	c-1.1,1.7-2.2,3.4-3.3,5.2c-3.4,5.4-7,10.6-10.7,15.8c-1.2,1.7-2.5,3.5-3.7,5.2c-0.6,0.8-1.2,1.6-1.8,2.5c-1.3,1.9-2.5,3.8-3.7,5.8
	c-2.2,2.9-3.4,3.4-6.9,4.5c-3,0.3-3,0.3-6.3,0.5c-1.2,0.1-2.5,0.1-3.8,0.2c-1.4,0.1-2.7,0.1-4.1,0.2c-1.4,0.1-2.8,0.1-4.2,0.2
	c-3.7,0.2-7.4,0.3-11.1,0.5c-5.9,0.2-11.8,0.5-17.6,0.8c-2,0.1-4.1,0.2-6.1,0.3c-7.3,0.3-14.6,0.8-21.9,1.5c0,1.6,0,1.6-0.1,3.1
	c-0.1,3.9-0.2,7.7-0.3,11.6c0,1.7-0.1,3.3-0.1,5c-0.1,2.4-0.1,4.8-0.2,7.2c0,0.7,0,1.5-0.1,2.3c-0.2,5.3-0.2,5.3-0.8,7.7
	c-0.6,2.3-0.7,4.4-0.8,6.8c0,0.9-0.1,1.9-0.1,2.9s-0.1,2.1-0.1,3.1c0,1.1-0.1,2.2-0.1,3.3c-0.1,2.4-0.2,4.7-0.3,7.1
	c-0.2,3.8-0.3,7.5-0.5,11.3c-0.3,7.3-0.6,14.6-0.9,21.9c-0.4,9.9-0.8,19.8-1.3,29.7c-0.2,3.7-0.3,7.4-0.5,11.1
	c-0.1,2.3-0.2,4.5-0.3,6.8c0,1-0.1,2.1-0.1,3.1c-0.2,5.1-0.6,10-1.4,15c-2.3,0.7-4.6,1.3-7,2c0,0.7,0,1.3,0,2
	c-0.5,0.2-1,0.5-1.5,0.7c-2.4,1.1-4.8,2.2-7.1,3.3c-0.9,0.4-1.7,0.8-2.6,1.2c-6.2,2.9-12.2,6.1-18.1,9.6c-2.6,1.1-2.6,1.1-4.7,0.9
	c-3.2-1.4-5.3-3.4-7.9-5.8c0-0.7,0-1.3,0-2c-0.6-0.2-1.1-0.5-1.7-0.7c-2.8-1.5-4.8-3.4-7-5.5c-3.1-2.8-6.2-5.5-9.6-8
	c-3.2-2.3-5.9-4.9-8.7-7.8c-6.2-5.9-6.2-5.9-13-11c0.1-0.7,0.2-1.3,0.2-2c0.4-3.1,0.8-6.2,1.1-9.4c0.1-1.1,0.3-2.3,0.4-3.4
	c0.6-5.2,1.2-10.4,1.8-15.5c0.1-0.8,0.2-1.6,0.3-2.4c0.2-1.4,0.3-2.9,0.4-4.3c0.3-3.3,0.9-6.5,1.7-9.7c1.3-6,2-12,2.7-18.1
	c0.2-2.1,0.5-4.3,0.8-6.4c0.5-4.6,1.1-9.1,1.6-13.7c0.6-5.3,1.2-10.6,1.9-15.9c0.2-2.1,0.5-4.2,0.7-6.3c1.3-10.7,1.3-10.7,2.4-15.3
	c1.4-5.8,2-11.7,2.6-17.6c0.2-2.2,0.5-4.4,0.8-6.5c0.5-4.6,1.1-9.2,1.6-13.9c0.6-5.4,1.2-10.7,1.9-16.1c0.2-2.1,0.5-4.3,0.7-6.4
	c0.7-6.3,1.6-12.6,2.9-18.8c0.8-3.9,1.2-7.9,1.7-11.9c0.2-1.3,0.2-1.3,0.3-2.6c0.3-2.7,0.7-5.4,1-8.2c0.3-2.7,0.7-5.5,1-8.2
	c0.2-1.7,0.4-3.4,0.6-5.1c0.1-0.8,0.2-1.5,0.3-2.3c0.1-0.7,0.2-1.3,0.2-2c0.3-2,0.8-4,1.3-5.9c0.9-0.1,1.7-0.2,2.6-0.3
	c3.2-0.3,6.5-0.6,9.7-1c1.4-0.1,2.8-0.3,4.2-0.4c2-0.2,4-0.4,6-0.6c1.2-0.1,2.4-0.2,3.7-0.4c2.7-0.1,2.7-0.1,3.8-1.4
	c2.6-0.3,5.1-0.6,7.7-0.8c0.8-0.1,1.6-0.2,2.4-0.2c2.7-0.3,5.3-0.5,8-0.7c1.9-0.2,3.7-0.4,5.6-0.5c4.9-0.5,9.8-0.9,14.7-1.4
	c5-0.5,9.9-0.9,14.9-1.4c6.5-0.6,12.9-1.2,19.4-1.8c2.4-0.2,4.8-0.5,7.2-0.7c2.5-0.2,5-0.5,7.5-0.7c4.1,0,4.1,0,7.6-1.7
	c2.5-0.4,4.9-0.6,7.4-0.8C738.2,1781,738.2,1781,741.6,1780.4z M679.5,1830.4c-1.1,0.1-2.2,0.2-3.4,0.2c-3.3,0.3-3.3,0.3-7.1,1.3
	c0,7.9,0,15.8,0,24c4.6-0.3,9.2-0.7,14-1c1.6-5.5,3.1-11,4.6-16.4c0.2-0.8,0.5-1.7,0.7-2.5c0.6-2,1.1-4,1.7-6.1
	C686.5,1830,683,1830.2,679.5,1830.4z"/>
<path class="st0" d="M1390,2146c6.9,1.3,13.6,3.1,20.4,4.8c1.7,0.4,3.3,0.8,5,1.2c2.4,0.6,4.8,1.2,7.3,1.8c1.1,0.3,1.1,0.3,2.2,0.5
	c4.6,1.2,8.8,2.8,13.2,4.7c2.3,0.6,4.6,1.2,7,1.7c1.3,0.3,2.6,0.6,3.9,0.9c2,0.5,4,0.9,6,1.3c2,0.4,3.9,0.9,5.9,1.3
	c1.2,0.3,2.3,0.5,3.5,0.8c2.8,0.9,2.8,0.9,4.8,3.9c0.4,2.3,0.4,2.3,0.7,5c0.1,1.1,0.2,2.1,0.3,3.2c0.1,1.2,0.2,2.4,0.3,3.6
	c0.2,1.9,0.2,1.9,0.4,3.8c1.8,19,3.2,38,4.6,56.9c0.5,7.2,1.1,14.4,1.6,21.6c0.3,3.8,0.6,7.6,0.9,11.4c0.4,4.8,0.7,9.6,1.1,14.4
	c0.1,1.2,0.2,2.4,0.3,3.6c0.1,1,0.2,2,0.3,3c0.1,1.2,0.1,1.2,0.2,2.5c0.2,2,0.2,2,1.3,3.9c0.3,2.9,0.5,5.7,0.7,8.6
	c0.1,0.9,0.1,1.8,0.2,2.7c0.2,3,0.4,5.9,0.7,8.9c0.2,2.1,0.3,4.1,0.5,6.2c0.4,5.4,0.8,10.9,1.2,16.3c0.6,7.6,1.1,15.2,1.7,22.9
	c0.3,4.1,0.6,8.1,0.9,12.2c0.4,5.1,0.8,10.3,1.2,15.4c0.1,1.8,0.1,1.8,0.3,3.7c0.1,1.5,0.1,1.5,0.3,3c0.1,0.8,0.1,1.6,0.2,2.5
	c0.1,1.8,0.1,1.8,1.3,2.8c0.3,2.3,0.5,4.6,0.6,6.9c0.1,0.7,0.1,1.5,0.2,2.2c0.2,2.4,0.4,4.9,0.5,7.3c0.1,1.7,0.3,3.4,0.4,5.2
	c0.3,4.6,0.7,9.2,1,13.7s0.7,9,1,13.5c0.1,0.9,0.1,1.8,0.2,2.7c0.6,8.9,1.3,17.8,2,26.8c0.1,1.9,0.3,3.7,0.4,5.6
	c0.4,5.6,0.8,11.1,1.2,16.7c0.1,1.7,0.3,3.5,0.4,5.2c0.2,2.4,0.4,4.8,0.5,7.2c0.1,0.7,0.1,1.4,0.2,2.2c0,3.3,0,3.3,1.5,6
	c0.2,2.3,0.4,4.7,0.6,7.1c0.1,1.3,0.2,2.6,0.3,3.9c0.1,1,0.1,2,0.2,3c-5.1,1.9-10.2,2.8-15.5,3.7c-1.3,0.2-1.3,0.2-2.7,0.5
	c-2.9,0.5-5.7,0.9-8.6,1.4s-5.7,0.9-8.6,1.4c-1.8,0.3-3.6,0.6-5.4,0.9c-3.9,0.3-3.9,0.3-7.2,2.1c-2.3,0.4-4.6,0.8-7,1.2
	c-0.7,0.1-1.4,0.2-2.1,0.3c-1.5,0.2-3,0.5-4.5,0.7c-2.3,0.3-4.6,0.7-6.8,1.1c-1.4,0.2-2.9,0.4-4.3,0.7c-0.7,0.1-1.4,0.2-2.1,0.3
	c-2.8,0.4-5.4,0.7-8.2,0.7c-1.3-3.9-1.4-7.8-1.6-11.8c-0.1-0.9-0.1-1.8-0.2-2.7c-0.1-2-0.2-3.9-0.4-5.9c-0.2-3.1-0.4-6.3-0.6-9.4
	c-0.4-6.7-0.8-13.4-1.2-20c-0.5-7.7-0.9-15.4-1.4-23.1c-0.2-3.1-0.4-6.1-0.5-9.2c-0.5-8.8-1.1-17.6-2.1-26.4
	c-1.4-12.8-2-25.6-2.8-38.5c-0.2-3.6-0.4-7.1-0.6-10.7c-0.6-10.5-1.3-21-1.9-31.6c-0.5-8.2-1-16.5-1.5-24.7
	c-0.3-4.2-0.5-8.4-0.8-12.7c-0.2-3.2-0.4-6.4-0.6-9.7c-0.1-1.2-0.1-2.3-0.2-3.5c-0.1-1.1-0.1-2.1-0.2-3.2c-0.1-0.9-0.1-1.8-0.2-2.8
	c-0.1-2.2-0.1-2.2-1.2-4.2c-0.2-1.5-0.3-2.9-0.4-4.4c-0.1-0.9-0.1-1.9-0.2-2.8c-0.1-1.5-0.1-1.5-0.2-3.1c-0.1-1.1-0.1-2.2-0.2-3.3
	c-0.2-3.6-0.4-7.2-0.6-10.7c-0.2-2.5-0.3-5-0.5-7.5c-0.4-6-0.7-11.9-1.1-17.9c-0.7-11.2-1.3-22.4-2-33.6c-0.2-3.6-0.4-7.3-0.6-10.9
	c-0.7-12.3-1.5-24.6-2.3-36.8c-0.1-1.3-0.2-2.5-0.2-3.8c-0.1-1.2-0.2-2.3-0.2-3.5c-0.1-1-0.1-2-0.2-3.1c-0.2-2.7-0.2-2.7-1.3-5.6
	c-0.1-2.4-0.1-4.8-0.1-7.2c0-1.3,0-2.5,0-3.9C1390,2148,1390,2147,1390,2146z"/>
<path class="st0" d="M1571,1838c0.3,4.6,0,8.4-1.3,12.9c-2.5,9.8-3.8,20-5.3,30c-0.6,4-1.2,8.1-1.8,12.1c-0.1,0.9-0.3,1.8-0.4,2.8
	c-0.5,3.5-1.1,6.8-2.2,10.1c-1.6,4.8-2.1,9.6-2.9,14.6c-0.2,1.1-0.3,2.2-0.5,3.4c-0.5,3.6-1.1,7.1-1.6,10.7c-0.7,4.7-1.4,9.3-2.1,14
	c-0.2,1.6-0.2,1.6-0.5,3.2c-1,6.5-2.3,12.8-3.8,19.1c-1,4.6-1.8,9.3-2.5,14c-0.1,1-0.3,1.9-0.4,2.9c-0.6,4.1-1.2,8.1-1.8,12.2
	c-0.4,3-0.9,6-1.4,9c-0.1,0.9-0.3,1.8-0.4,2.8c-0.5,3.5-1.1,6.7-2.2,10.1c-1.6,4.8-2.2,9.8-2.9,14.8c-0.3,1.7-0.3,1.7-0.5,3.4
	c-0.5,3.6-1.1,7.1-1.6,10.7s-1.1,7.2-1.6,10.8c-0.3,2.2-0.7,4.5-1,6.7c-0.2,1-0.3,2-0.5,3c-0.1,0.9-0.3,1.8-0.4,2.7
	c-0.4,2-0.4,2-1.4,3c-0.4,2.2-0.7,4.4-1.1,6.6c-0.2,1.2-0.4,2.4-0.5,3.6c-0.1,0.9-0.3,1.9-0.4,2.8c-3.3-1.3-6.6-2.7-9.9-4.2
	c-0.9-0.4-1.8-0.8-2.7-1.2c-1.4-0.6-1.4-0.6-2.8-1.2c-1.4-0.6-1.4-0.6-2.8-1.3c-2.3-1-4.6-2.1-6.9-3.1c0-0.7,0-1.3,0-2
	c-1.3-0.4-2.5-0.8-3.8-1.2c-5.6-1.9-10.9-4.3-16.2-6.8c0-0.7,0-1.3,0-2c-1-0.1-1-0.1-2.1-0.3c-3.7-0.9-6.8-2.5-10.1-4.3
	c-8.8-4.5-17.8-8.5-26.8-12.4c0-0.7,0-1.3,0-2c-1.2-0.3-2.3-0.7-3.5-1c-6.9-2.3-13.3-5.7-19.7-9.1c-1.5-0.8-3.1-1.6-4.7-2.3
	c-2.1-1.6-2.1-1.6-3-4.5c-0.1-1.1-0.2-2.1-0.4-3.2c-0.1-3.8-0.1-3.8-1.8-6.9c-0.3-2.5-0.6-5-0.8-7.6c-0.1-0.8-0.1-1.6-0.2-2.4
	c-0.2-1.7-0.3-3.5-0.5-5.2c-0.3-2.7-0.5-5.5-0.8-8.2c-0.6-6.8-1.3-13.7-1.9-20.5c-0.5-5.8-1.1-11.5-1.6-17.3
	c-0.3-2.7-0.5-5.4-0.7-8.1c-0.7-7.2-1.4-14.3-2.9-21.3c-1.1-5.6-1.5-11.2-2-16.9c-0.1-1.4-0.3-2.7-0.4-4.1c-0.3-2.9-0.5-5.7-0.8-8.6
	c-0.3-3.6-0.7-7.3-1-10.9c-0.3-2.8-0.5-5.7-0.8-8.5c-0.2-2-0.4-4-0.6-6c-0.6-6.9-1-13.6-0.9-20.5c3-0.7,5.9-1.3,9-2c0-0.7,0-1.3,0-2
	c4.3-1.3,8.5-2.7,12.8-4c1.2-0.4,2.4-0.8,3.7-1.2c1.2-0.4,2.3-0.7,3.5-1.1c1.1-0.3,2.1-0.7,3.3-1c2.7-0.7,2.7-0.7,5.7-0.7
	c2.1,13.7,4.2,27.5,6.2,41.2c0.2,1.2,0.3,2.4,0.5,3.6c0.2,1.1,0.3,2.2,0.5,3.4c0.2,1.5,0.2,1.5,0.4,3c0.3,3,0.4,5.9,0.3,8.8
	c0.7,0,1.3,0,2,0c0.1,0.9,0.1,0.9,0.2,1.8c0.9,6.4,1.7,12.8,2.6,19.1c0.3,2.4,0.6,4.7,1,7.1c1.7,12.7,3.5,25.4,6.2,37.9
	c0.2,0.9,0.3,1.8,0.5,2.7c0.7,3.1,2.4,4.8,4.5,7.3c1,1.5,1,1.5,2,3.1c1.8,2.9,1.8,2.9,3.9,4.8c5.2,5.2,9.1,11.5,13.3,17.4
	c0.5,0.6,0.9,1.3,1.4,2c1.1,1.6,2.3,3.2,3.4,4.8c0.2-0.9,0.3-1.8,0.5-2.7c5.2-30.3,5.2-30.3,8-42.8c2.8-12.9,4.9-25.9,7.1-38.9
	c1.3-8.1,2.8-16.1,4.7-24c1-4.4,1.7-8.8,2.5-13.2c0.1-0.9,0.3-1.7,0.4-2.6c0.6-3.6,1.2-7.1,1.8-10.7c0.4-2.6,0.9-5.3,1.3-7.9
	c0.1-0.8,0.3-1.6,0.4-2.4c0.9-5.2,2.1-9.9,4.3-14.7c1.9-1.2,1.9-1.2,4.1-1.5c1.2-0.2,1.2-0.2,2.4-0.4c0.9-0.1,1.7-0.2,2.6-0.3
	c1.8-0.3,3.6-0.6,5.4-0.9c0.9-0.1,1.8-0.3,2.8-0.4c4.8-0.8,9.6-2,14.3-3.2c3.3-0.8,6-1.2,9.4-1.2c0-0.7,0-1.3,0-2
	c2.3-0.5,4.5-1,6.8-1.5c1.3-0.3,2.5-0.6,3.8-0.8C1568,1838,1568,1838,1571,1838z"/>
<path class="st0" d="M1244,1838c-0.6,5.1-2.2,9.2-4.4,13.8c-0.3,0.7-0.6,1.4-0.9,2.1c-2.4,5-2.4,5-4.6,6.1c-0.4,1.3-0.7,2.7-1,4
	c-3.5,8.9-7.6,17.5-12,26c-5,9.9-9.8,19.8-14,30c-0.7,0-1.3,0-2,0c-0.1,0.7-0.2,1.3-0.3,2c-0.8,3.6-2.2,6.9-3.8,10.3
	c-0.3,0.7-0.6,1.4-0.9,2.1c-3.4,7.7-7.2,15.1-11,22.6c-1.8,3.6-3.6,7.2-5.2,10.9c-0.3,0.8-0.7,1.6-1,2.4c-0.3,0.6-0.5,1.2-0.8,1.8
	c1.2,1.5,1.2,1.5,2.4,3.1c3.6,4.8,6.9,9.7,10.1,14.7c2.3,3.5,2.3,3.5,5,6.7c1.9,1.9,3.1,4.2,4.3,6.6c1.5,2.5,3.3,4.6,5.2,6.9
	c1.3,1.9,2.6,3.8,3.8,5.7c5.4,8.1,10.9,16,16.7,23.8c11.6,15.8,11.6,15.8,14.7,21.3c1.7,3,3.6,5.5,5.8,8.2c4.1,5.3,4.1,5.3,3.8,8.5
	c-1,3-2,3.9-4.5,5.8c-3.5,2.9-6.5,6-9.5,9.4c-2.3,2.7-4.7,5.3-7,7.9c-0.8,0.9-1.6,1.8-2.4,2.7c-1.7,1.8-3.4,3.6-5.1,5.3
	c-2.3,2.2-2.3,2.2-3.9,4.6c-0.7,0.8-0.7,0.8-1.4,1.7c-1,0-2,0-3,0c-3.6-7-6.9-14-9.9-21.3c-1-2.3-2-4.5-3.1-6.7c-7-13.6-7-13.6-7-19
	c-0.7,0-1.3,0-2,0c-1.3-3.5-2.7-6.9-4-10.4c-0.4-1-0.8-2-1.2-3c-0.4-0.9-0.7-1.9-1.1-2.9c-0.3-0.9-0.7-1.7-1-2.6
	c-0.7-2.2-0.7-2.2-0.7-4.2c-0.7,0-1.3,0-2,0c-0.3-0.7-0.5-1.3-0.8-2c-1.2-2.9-2.4-5.9-3.6-8.8c-0.4-1-0.8-2-1.2-3.1
	c-0.4-1-0.8-2-1.2-3c-0.4-0.9-0.7-1.8-1.1-2.7c-1.1-2.6-1.1-2.6-3.1-5.4c0.3,1.9,0.6,3.7,0.9,5.6c0.2,1.5,0.2,1.5,0.5,3.1
	c0.6,3.3,0.6,3.3,1.6,6.3c1.4,5,2.2,10,3,15.1c0.2,1.1,0.3,2.1,0.5,3.2c0.7,4.5,1.4,9,2.2,13.5c0.5,3.3,1.1,6.6,1.6,9.9
	c0.2,1,0.3,2,0.5,3.1c0.8,5.2,1.9,10.1,3.4,15.1c0.7,3.2,1.1,6.4,1.6,9.6c0.2,1.2,0.2,1.2,0.4,2.5c0.1,0.8,0.3,1.6,0.4,2.4
	c0.1,0.7,0.2,1.4,0.3,2.2c0.3,2.8,0.2,5.5,0.2,8.3c-18.5,0-37,0-56,0c-0.5-6.6-1-13.2-1.5-20.1c-0.3-4.2-0.6-8.4-0.9-12.7
	c-0.5-6.7-1-13.4-1.5-20.1c-0.4-5.4-0.8-10.8-1.2-16.2c-0.2-2-0.3-4.1-0.4-6.1c-0.9-13-0.9-13-2.5-25.9c-1.5-9.5-2-19.1-2.7-28.8
	c-0.2-2.1-0.3-4.2-0.5-6.3c-0.4-5.4-0.8-10.9-1.2-16.3c-0.6-7.7-1.1-15.4-1.7-23c-0.3-4.1-0.6-8.2-0.9-12.2
	c-0.6-8.8-1.3-17.6-2.1-26.4c-1-11.8-1-11.8,2.4-15.9c1.7-1,1.7-1,3.6-2.1c1.6-1,3.2-2,4.8-2.9c0.9-0.5,1.7-1,2.6-1.5
	c3.2-1.9,6.3-4,9.4-6.1c2.8-1.9,5.6-3.6,8.4-5.4c1.6-1,3.2-2,4.7-3.1c1,0,2,0,3,0c1,3.3,1.2,6.5,1.4,10c0.1,1.2,0.1,2.4,0.2,3.6
	c0.1,1.3,0.1,2.6,0.2,3.9s0.1,2.7,0.2,4c0.2,3.5,0.3,7,0.5,10.6s0.3,7.2,0.5,10.8c0.3,7,0.7,14.1,1,21.1c0.1-1.3,0.2-2.5,0.3-3.8
	c0.4-4.8,0.8-9.5,1.3-14.3c0.2-2.1,0.4-4.1,0.5-6.2c1.8-20.8,1.8-20.8,3.5-29.3c0.4-2.6,0.5-5.2,0.5-7.9c0.3-2.5,0.3-2.5,0.9-4.5
	c2.9-2.1,4.7-2.9,8-4c1.9-0.7,3.8-1.5,5.7-2.2c2.8-1.1,5.5-2.1,8.3-3.1c1.8-0.7,3.6-1.3,5.3-2c1-0.4,1.9-0.7,2.9-1.1
	c0.8-0.3,1.7-0.6,2.6-1c2.1-0.7,2.1-0.7,5.1-0.7c0-0.7,0-1.3,0-2c0.7-0.3,1.5-0.5,2.2-0.8c3.4-1.2,6.8-2.3,10.2-3.5
	c1.2-0.4,2.3-0.8,3.5-1.2c5.9-2,11.6-4.1,17.2-6.8C1241,1838,1241,1838,1244,1838z"/>
<path class="st0" d="M846,1868c5.6,0.4,11.3,0.8,16.9,1.2c1.9,0.1,3.8,0.3,5.8,0.4c2.8,0.2,5.5,0.4,8.3,0.6c1.3,0.1,1.3,0.1,2.6,0.2
	c1.2,0.1,1.2,0.1,2.4,0.2c1.1,0.1,1.1,0.1,2.1,0.2c1.9,0.2,1.9,0.2,4.9,1.2c1.8,0.2,3.5,0.4,5.3,0.5c1.6,0.1,1.6,0.1,3.3,0.2
	c1.2,0.1,2.3,0.2,3.5,0.2c1.2,0.1,2.4,0.2,3.6,0.3c3.8,0.3,7.6,0.6,11.4,0.8c2.6,0.2,5.1,0.4,7.7,0.6c4.7,0.3,9.4,0.7,14.1,1
	c1.4,0.1,1.4,0.1,2.9,0.2c1.4,0.1,2.8,0.1,4.3,0.1c-0.5,6.2-1.6,11.8-3.4,17.7c-0.7,2.2-0.7,2.2-0.6,4.3c-0.7,0-1.3,0-2,0
	c-0.1,1.1-0.2,2.1-0.3,3.2c-0.7,5.8-2.2,11.5-3.6,17.2c-0.3,1.1-0.5,2.2-0.8,3.3c-3.5,14.7-3.5,14.7-6.3,20.3
	c-1.5,0.8-3,1.5-4.5,2.2c-5.4,2.6-9.9,6-14.5,9.8c0.6,3.1,0.6,3.1,2.9,3.9c0.7,0.3,1.4,0.7,2.1,1.1c1.5,1.8,1.5,1.8,2.9,3.8
	c2.5,3.4,5.1,6.2,8.1,9.2c5.4,5.7,10.4,11.7,15.2,17.8c2.1,2.6,4.4,4.9,6.8,7.2c3,3.3,6,6.7,9,10c1.5,1.7,3,3.3,4.5,5
	c9,10,9,10,11.2,12.5c1.5,1.7,3,3.4,4.6,5c4.8,5.3,9.4,10.7,13.7,16.5c-0.7,0.3-1.3,0.7-2,1c-0.7,1.7-1.3,3.3-2,5
	c-3.9,7.7-8.6,14.8-13.7,21.7c-2.1,2.9-3.8,6-5.3,9.3c-1,0-2,0-3,0c-1.5-1.8-1.5-1.8-2.9-4.2c-2.2-3.5-4.5-6.6-7.1-9.8
	c-1.6-2.1-3.2-4.1-4.8-6.2c-3.1-4-6.2-8-9.4-11.9c-3.4-4.2-6.6-8.6-9.7-13c-5.2-7.1-10.6-14-16.1-20.8c-3.8-4.8-7.5-9.7-11.1-14.7
	c-3.6-4.9-7.2-9.7-11-14.5c-1.3-1.6-2.5-3.2-3.8-4.9c-0.6-0.7-1.1-1.4-1.7-2.2c-1.2-1.6-2.4-3.3-3.5-4.9c3.2,24.9,3.2,24.9,6.7,49.8
	c0.1,0.7,0.2,1.5,0.3,2.2c0.5,3.4,1.1,6.7,1.9,10c1.2,5.4,2,10.8,2.8,16.2c0.2,1,0.3,2.1,0.5,3.2c0.3,2.2,0.6,4.4,1,6.6
	c0.5,3.4,1,6.7,1.5,10.1c0.3,2.1,0.6,4.3,0.9,6.4c0.2,1.5,0.2,1.5,0.5,3c0.1,0.9,0.3,1.9,0.4,2.8c0.1,0.8,0.2,1.6,0.4,2.5
	c0.1,2.4-0.1,4-0.9,6.2c-3.4,3.8-7.3,7.1-11.2,10.4c-2,1.7-2,1.7-3.8,4.6c-3.6-0.7-6.4-2.1-9.6-3.8c-5.4-2.7-10.8-5.1-16.4-7.2
	c-0.9-5.6-1.3-11.1-1.6-16.8c0-1-0.1-1.9-0.1-2.9c-0.1-2.1-0.2-4.1-0.3-6.2c-0.2-3.3-0.3-6.6-0.5-9.8c-0.4-8.1-0.8-16.3-1.2-24.4
	c-0.3-6.9-0.7-13.8-1-20.7c-0.2-3.2-0.3-6.5-0.5-9.7c-0.1-2-0.2-4-0.3-5.9c0-0.9-0.1-1.8-0.1-2.7c0-0.8-0.1-1.7-0.1-2.5
	c0-0.7-0.1-1.4-0.1-2.2c-0.1-2-0.1-2-0.7-4c-0.5-2.2-0.7-4.2-0.8-6.4c0-0.9-0.1-1.8-0.1-2.7c0-1-0.1-1.9-0.1-2.9
	c-0.1-1.5-0.1-1.5-0.1-3.1c-0.2-3.3-0.3-6.7-0.5-10c-0.1-2.3-0.2-4.7-0.3-7c-0.2-4.9-0.5-9.8-0.7-14.7c-0.3-6.2-0.6-12.5-0.9-18.7
	c-0.2-4.8-0.5-9.7-0.7-14.5c-0.1-2.3-0.2-4.6-0.3-6.9C846.3,1892.1,845.8,1880.1,846,1868z M877,1908c0.7,6.3,1.3,12.5,2,19
	c7.4-2.4,7.4-2.4,14.4-5.6c0.8-0.4,1.6-0.8,2.5-1.3c2.3-1.2,2.3-1.2,5.2-3.2c-0.6-0.2-1.2-0.5-1.8-0.7c-6-2.4-11.9-4.8-17.8-7.3
	C879.1,1907.9,879.1,1907.9,877,1908z"/>
<path class="st0" d="M810,1854c0.2,0.7,0.4,1.4,0.6,2.2c0.4,1.4,0.4,1.4,0.8,2.9c0.3,0.9,0.5,1.9,0.8,2.8c0.6,2.1,1.2,4.2,1.8,6.3
	c1.1,3.9,1.9,7.8,2.7,11.8c0.3,1.5,0.6,3,0.9,4.6c0.5,2.4,0.9,4.7,1.4,7.1c2,10.5,2,10.5,4.6,20.9c2.2,7.8,3.6,15.9,5.1,23.8
	c0.6,3.2,1.2,6.4,1.8,9.6c0.1,0.7,0.3,1.4,0.4,2.2c0.6,3,1.2,5.9,2.2,8.8c1.3,4,2.1,8.1,2.9,12.2c0.2,0.9,0.3,1.7,0.5,2.6
	c0.7,3.7,1.4,7.4,2.2,11c0.5,2.7,1.1,5.4,1.6,8.1c0.2,0.8,0.3,1.7,0.5,2.5c0.9,4.3,2,8.4,3.4,12.6c0.6,2.6,1.1,5.3,1.6,7.9
	c0.1,0.8,0.3,1.5,0.4,2.3c0.6,3.2,1.2,6.4,1.8,9.6c0.4,2.3,0.9,4.7,1.3,7c0.1,0.8,0.3,1.5,0.4,2.3c1.2,6,2.6,12,4.3,17.9
	c0.9,3.2,1.2,4.7,0.2,8c-0.5-0.1-1.1-0.2-1.7-0.4c-4.6-1-9.2-2-13.8-3c-3.2-0.7-6.3-1.4-9.5-2c-1.7-0.4-3.3-0.7-5-1.1
	c-2.4-0.5-4.8-1-7.3-1.6c-1.1-0.2-1.1-0.2-2.3-0.5c-2.8-0.6-5.2-1.2-7.6-2.8c-1.5-2.5-1.5-4.5-1.6-7.4c0-1.2-0.1-2.3-0.1-3.5
	c0-1.3,0-2.5-0.1-3.8c0-1.3-0.1-2.6-0.1-3.9c-0.3-13-0.3-26.1-0.2-39.1c-4.2,0-8.5,0.2-12.7,0.4c-1.8,0-1.8,0-3.6,0
	c-3.5,0.2-6.4,0.4-9.7,1.6c-2.6,3-3.7,6.2-5,10c-0.6,1.3-1.3,2.6-2,3.9c-0.3,0.6-0.6,1.2-1,1.8c-0.3,0.6-0.6,1.2-1,1.8
	c-0.3,0.6-0.7,1.3-1,1.9c-2.5,4.6-5,9.2-7.5,13.8c-1.8,3.3-3.6,6.6-5.4,10c-0.5,0.9-0.5,0.9-1,1.9c-1.9,3.5-3.7,7.1-5.6,10.7
	c-0.6,1.2-0.6,1.2-1.2,2.3c-0.8,1.5-1.5,3-2.3,4.5c-2,3.8-3.1,5.9-7.1,7.5c-1.8,0.4-3.7,0.7-5.6,1c-1.1,0.2-2.2,0.3-3.3,0.5
	s-2.2,0.3-3.4,0.5c-7,1-13.9,2.2-20.8,4c-3,0.1-3,0.1-5,0c0.3-5,1.3-9,3.2-13.7c2.8-6.8,4.7-13.8,6.7-20.9c1-3.7,2.1-7.2,3.6-10.8
	c2.2-5.1,3.6-10.3,5-15.6c1.8-6.6,3.8-12.7,6.5-19c1.3-4,2.4-7.9,3.5-11.9c1.7-6.1,3.5-12.1,5.8-18.1c1.8-4.9,3-10,4.4-15.1
	c1.2-4.4,2.6-8.7,4.3-12.9c2.5-6.1,4.1-12.3,5.6-18.7c1.4-5.3,2.5-8.3,7.4-11.3c0.8-0.8,1.6-1.6,2.4-2.4c2.7-2.7,5.6-5.1,8.6-7.6
	c1.7-1.6,3.4-3.3,5-5c5.5-5.6,11.1-10.9,17-16c5.6-4.9,11.1-9.9,16.2-15.3C808,1854,808,1854,810,1854z M791,1930
	c-1,3.3-2,6.5-3,9.8c-0.4,1.4-0.4,1.4-0.9,2.8c-0.3,0.9-0.5,1.8-0.8,2.7c-0.4,1.2-0.4,1.2-0.8,2.5c-0.7,2.3-0.7,2.3-0.6,5.2
	c5-0.5,8.2-1.1,13-3c-2-6.6-4-13.2-6-20C791.7,1930,791.3,1930,791,1930z"/>
<path class="st0" d="M1375,1858c-0.5,3.6-1.4,6-3.5,8.9c-2.7,3.9-5.4,7.9-7.9,11.9c-0.6,0.9-0.6,0.9-1.2,1.8
	c-0.8,1.2-1.5,2.4-2.3,3.6c-1,1.5-2,3.1-3,4.6c-3.8,5.8-7.3,11.8-10.6,17.8c-0.5,0.7-1,1.5-1.5,2.2c-0.7,0-1.3,0-2,0
	c-0.1,0.6-0.2,1.1-0.3,1.7c-1.7,5.7-5.6,11-9.2,15.7c-2.7,3.7-4.8,7.7-7,11.8c-2.3,4.1-4.9,7.9-7.5,11.8c-2.3,3.3-2.3,3.3-3,7
	c3.4,3.7,7.1,6.9,10.9,10.2c2.5,2.2,4.8,4.5,7.1,6.8c1,1,2,2,2.9,2.9c2,2,4.1,4.1,6.1,6.1c0.5,0.5,1,1,1.5,1.5
	c1.4,1.4,2.7,2.7,4.1,4.1c2.1,2,4.2,4,6.4,5.8c3.1,2.7,6.1,5.6,9,8.5c1,0.8,1.9,1.6,2.9,2.4c2.9,2.4,5.2,5.1,7.6,7.9
	c4.3,5.1,9.4,9.4,14.4,13.7c-0.3,2.9-0.6,4.6-2.7,6.7c-0.7,0.5-1.4,1-2.2,1.5c-3.6,2.6-7.1,5.3-10.5,8.1c-0.9,0.8-1.8,1.5-2.8,2.3
	c-2,1.6-3.9,3.2-5.9,4.9c-1.5,1.2-1.5,1.2-2.9,2.5c-0.9,0.7-1.8,1.5-2.7,2.2c-2.3,1.6-3.7,2.3-6.4,2.8c-2.6-3.5-5-6.9-7.1-10.8
	c-1.6-3.1-1.6-3.1-3.4-4.7c-1.7-1.7-2.6-3.4-3.7-5.5c-2.6-4.8-5.7-9.1-9-13.4c-1.8-2.4-3.3-5-4.7-7.6c-2.8-4.8-6-9.3-9.1-13.9
	c-0.7-1.1-1.4-2.1-2.1-3.2c-1.6-2.3-3-3.9-4.9-5.8c0.8,3,1.5,6,2.3,8.9c0.2,0.8,0.4,1.7,0.6,2.5c1,4,2.1,7.9,3.5,11.9
	c2.4,6.9,4.1,14,5.9,21.1c1.3,4.9,2.6,9.7,4.3,14.5c1.3,3.7,1.9,7.2,2.3,11.1c-18.7,0.7-37.3,1.2-56,1c-0.9-5.9-1.7-11.7-2.6-17.6
	c-0.3-2-0.6-4-0.9-6c-0.4-2.9-0.8-5.7-1.3-8.6c-0.1-0.9-0.3-1.8-0.4-2.7c-0.7-4.8-1.1-9.4-0.9-14.2c-0.7,0-1.3,0-2,0
	c-0.1-0.7-0.2-1.5-0.3-2.3c-0.9-7.1-1.8-14.1-2.7-21.2c-0.5-3.6-0.9-7.3-1.4-10.9c-0.4-3.5-0.9-7-1.3-10.6c-0.3-2-0.5-3.9-0.7-5.9
	c-1-7.7-2.3-15.3-3.9-22.9c-0.7-3.7-1.3-7.3-1.8-11.1c-0.2-1.3-0.3-2.5-0.5-3.9c-0.2-1.3-0.3-2.5-0.5-3.9c-0.2-1.3-0.4-2.6-0.5-4
	c-0.8-5.9-1.4-11.6-1.3-17.5c0.9-0.4,1.8-0.8,2.7-1.2c7.7-3.6,15.3-7.2,22.9-11.1c9.2-4.7,9.2-4.7,13.4-4.7
	c0.6,4.6,1.1,9.3,1.7,13.9c0.2,1.6,0.4,3.1,0.6,4.7c1,8.8,2.1,17.5,2.8,26.4c1.7-10.4,3-20.8,4.1-31.3c0.2-1.6,0.4-3.3,0.6-4.9
	c0.4-3.9,0.9-7.9,1.3-11.8c7.2-2.8,14.4-4.8,21.9-6.8c4.8-1.3,9.4-2.7,14-4.5c4.4-1.6,8.9-2.7,13.4-4c1-0.3,2-0.5,3-0.8
	c0.9-0.3,1.9-0.5,2.9-0.8c0.9-0.2,1.7-0.5,2.6-0.7c2.2-0.5,2.2-0.5,5.2-0.5c0-0.7,0-1.3,0-2c1.8-0.5,3.6-1,5.4-1.5
	c1-0.3,2-0.6,3-0.8C1373,1858,1373,1858,1375,1858z M1307,1988c1,2,1,2,1,2L1307,1988z"/>
<path class="st0" d="M1035,1897c13,23.9,13,23.9,13,28c0.7,0,1.3,0,2,0c0.2,0.5,0.4,1,0.7,1.6c1,2.4,2,4.7,3.1,7.1
	c0.3,0.8,0.7,1.6,1.1,2.4c2,4.7,4.3,8.7,7.2,12.9c1.4,2.5,2.6,5,3.8,7.5c0.7,1.4,1.4,2.8,2.1,4.2c0.5,1.1,0.5,1.1,1.1,2.1
	c1,2.1,2.1,4.1,3.1,6.2c0.3,0.6,0.6,1.3,1,1.9c0.9,1.7,1.8,3.5,2.7,5.2c1.2,2.8,1.2,2.8,1.2,5.8c0.7,0,1.3,0,2,0
	c0.5,1.2,1.1,2.3,1.7,3.6c4.3,9.2,8.7,18.2,13.6,27.1c2.7,5,2.7,5,2.7,8.3c0.7,0,1.3,0,2,0c0.5,1.2,1.1,2.3,1.7,3.6
	c4.6,9.8,9.4,19.5,14.5,29c0.6,1.1,1.2,2.3,1.8,3.4c0.4,0.8,0.8,1.5,1.3,2.3c0.7,1.7,0.7,1.7,0.7,4.7c-14.7-1.6-29.2-3.5-43.7-6.6
	c-3.1-0.6-6.2-1-9.3-1.4c-0.1-0.6-0.2-1.2-0.3-1.8c-1-6.2-2-12.4-3.1-18.6c-0.4-2.3-0.8-4.6-1.1-7c-0.5-3.3-1.1-6.7-1.6-10
	c-0.2-1-0.3-2.1-0.5-3.2c-0.2-1-0.3-1.9-0.5-2.9c-0.1-0.9-0.3-1.7-0.4-2.6c-0.2-1.9-0.2-1.9-1.4-2.9c-0.7-3.2-1.1-6.5-1.6-9.7
	c-0.1-0.9-0.3-1.8-0.4-2.7c-0.7-4.6-1.2-9-1-13.6c-1.1,0-2.2,0.1-3.3,0.1c-3.4,0-6.5-0.4-9.8-1.1c-6.6-1.3-13.2-1.7-19.9-2.1
	c1.2,3.5,2.5,6.9,3.8,10.4c0.3,1,0.7,1.9,1.1,2.9c2,5.5,4.1,11,6.3,16.4c1.4,3.4,2.7,6.9,3.9,10.3c1.6,4.4,3.3,8.8,5.1,13.1
	c1.6,4.1,3.2,8.2,4.7,12.3c0.4,1.2,0.9,2.3,1.3,3.6c1,3,1,3,1,6c0.7,0,1.3,0,2,0c0,1,0,2,0,3c-10.7-1.7-21.4-3.8-32-6
	c0-0.7,0-1.3,0-2c-0.6,0-1.1-0.1-1.7-0.1c-2.5-0.2-4.9-0.5-7.3-0.9c-0.7-0.1-1.5-0.1-2.2-0.2c-2.6-0.5-3.8-1.1-5.8-2.8
	c-1.1-2.8-1.1-2.8-2-6.4c-0.2-0.7-0.3-1.3-0.5-2c-2.2-8.8-3.9-17.8-5.7-26.7c-0.5-2.6-1-5.2-1.6-7.9c-0.3-1.6-0.6-3.2-1-4.8
	c-0.8-4.2-2-8.2-3.3-12.2c-0.6-2.7-1.1-5.3-1.7-8c-0.1-0.8-0.3-1.5-0.4-2.3c-0.6-3.2-1.2-6.4-1.9-9.6c-0.5-2.3-0.9-4.7-1.4-7
	c-0.1-0.7-0.3-1.4-0.4-2.2c-0.8-4.1-1.9-7.9-3.2-11.9c-0.6-2.7-1.2-5.4-1.7-8.1c-0.2-0.8-0.3-1.5-0.5-2.3c-0.3-1.6-0.6-3.2-1-4.8
	c-0.5-2.4-1-4.9-1.5-7.3c-0.3-1.6-0.6-3.1-0.9-4.7c-0.1-0.7-0.3-1.5-0.4-2.2c-0.6-3.3-1-6.2-1-9.6c5.7-1,11.4-2,17.2-2.6
	c3.6,0,3.6,0,4.8-1.4c2.2-0.3,4.3-0.5,6.5-0.8c1-0.1,1-0.1,2-0.2c1.4-0.1,2.8-0.3,4.2-0.4c2.1-0.2,4.2-0.4,6.3-0.6
	C1019.7,1897.3,1027.3,1896.8,1035,1897z M1022,1937c-1,4.9-2,9.9-3,15c2.8-0.1,5.6-0.2,8.4-0.4c0.8,0,1.6-0.1,2.4-0.1
	c4.6,0,4.6,0,8.2-2.5c-0.8-0.6-1.6-1.2-2.5-1.9C1031,1943.8,1026.5,1940.4,1022,1937z"/>
<path class="st0" d="M878,2599c4.8-0.1,9.7-0.2,14.5-0.2c1.6,0,3.3,0,4.9-0.1c2.4,0,4.7-0.1,7.1-0.1c1.1,0,1.1,0,2.2-0.1
	c6.6,0,11.8,2.2,16.6,6.6c3.1,5.3,4.1,10.4,3.1,16.5c-1.6,5.9-5,9.6-10.2,12.7c-1.1,0.5-2.1,1.1-3.2,1.6c3.8,5.8,7.9,11.2,12.6,16.4
	c0.4,0.5,0.9,1,1.4,1.5c4.3,4.6,8.7,8.4,15.1,9.1c0,1.3,0,2.6,0,4c-2.7,0.1-5.5,0.2-8.2,0.3c-0.8,0-1.5,0.1-2.3,0.1
	c-4.2,0.1-5.9,0-9.3-2.7c-0.7-0.9-1.5-1.8-2.2-2.8c-0.7-0.8-1.4-1.6-2.2-2.4c-3.3-4-6.5-7.8-8.9-12.4c-0.3-0.6-0.7-1.3-1-1.9
	c-0.9-1.8-1.8-3.7-2.7-5.5c-2.5-3.8-2.5-3.8-10.2-3.8c0.3,8.9,0.7,17.8,1,27c3.3,0,6.6,0,10,0c0,1.3,0,2.6,0,4c-8.9,0-17.8,0-27,0
	c-0.3-1.3-0.7-2.6-1-4c2.6,0,5.3,0,8,0c-0.3-19.8-0.7-39.6-1-60c-2.3,0-4.6,0-7,0C878,2601.7,878,2600.4,878,2599z M895,2603
	c0,9.6,0,19.1,0,29c11.9,0.5,11.9,0.5,20.4-5.1c2.4-4.3,2.4-8.1,1.6-12.9c-2.8-6-7-8.5-13-10.8C901,2602.9,898,2603,895,2603z"/>
<path class="st0" d="M1019,2599c5.1-0.1,10.2-0.1,15.3-0.2c1.7,0,3.5,0,5.2-0.1c2.5,0,5-0.1,7.5-0.1c0.8,0,1.5,0,2.3,0
	c8.8,0,16.9,2.7,23.3,8.9c8.4,9.2,8.9,19.4,8.4,31.4c-0.7,8-4.2,15.1-9.8,20.9c-10.1,8.3-22,7.5-34.3,7.3c-1.6,0-3.3,0-4.9,0
	c-4,0-8-0.1-12-0.1c0-1.3,0-2.6,0-4c2.6,0,5.3,0,8,0c-0.3-19.8-0.7-39.6-1-60c-2.6,0-5.3,0-8,0C1019,2601.7,1019,2600.4,1019,2599z
	 M1038,2603c-1.3,1-1.3,1-1.1,3.3c0,1,0,2,0,3.1s0,2.3,0,3.5s0,2.5,0,3.8s0,2.5,0,3.8c0,3.4,0,6.7,0,10.1c0,3.4,0,6.9,0,10.3
	c0,6.7,0,13.5,0,20.2c7,3,15.1,3.3,22.4,0.8c6.9-3.5,10.3-6.6,12.9-13.9c2.3-9.7,1.1-19.5-3.6-28.3c-4.8-7.7-10.7-13.5-19.7-15.6
	C1045.3,2603.5,1041.7,2603,1038,2603z"/>
<path class="st0" d="M1401,2599c6-1,12-1.8,18,0c5,3.6,8.1,9.3,11.4,14.4c2.9,4.4,6.1,8.6,9.3,12.7c1.2,1.6,2.3,3.1,3.5,4.7
	c4.9,6.5,9.9,12.8,14.9,19.1c0-5.4,0-10.8,0.1-16.2c0-1.8,0-3.7,0-5.5c0-2.7,0-5.3,0-8c0-0.8,0-1.6,0-2.5c0-5-0.4-9.9-1.1-14.9
	c-3,0-5.9,0-9,0c0-1.3,0-2.6,0-4c7.9,0,15.8,0,24,0c-0.3,1.3-0.7,2.6-1,4c-2.6,0-5.3,0-8,0c0,21.4,0,42.9,0,65
	c-4.8-1.2-6.1-3.2-8.9-6.9c-1-1.3-2-2.6-2.9-3.9c-0.8-1-0.8-1-1.6-2.1c-2.8-3.7-5.6-7.3-8.4-10.9c-1.2-1.5-2.4-3-3.5-4.6
	c-0.9-1.1-0.9-1.1-1.8-2.3s-0.9-1.2-1.8-2.4c-2.5-3.3-5.1-6.5-7.6-9.8c-0.6-0.7-1.2-1.5-1.8-2.3c-2.8-3.7-5.7-7.3-8.6-10.9
	c-0.8,18.4-0.8,18.4-1.1,36.8c0,0.8,0,1.5,0,2.3c0,3.8,0.2,7.2,1.1,10.9c2.6,0.3,5.3,0.7,8,1c-0.3,1.3-0.7,2.6-1,4
	c-6.6,0-13.2,0-20,0c0-1.3,0-2.6,0-4c2.3,0,4.6,0,7,0c0-19.5,0-38.9,0-59c-3-0.3-5.9-0.7-9-1C1401,2601.7,1401,2600.4,1401,2599z"/>
<path class="st0" d="M1363.2,2598.5c0.8,0,1.7,0,2.5,0c8.1,0.2,14.7,2.2,20.7,7.8c7.1,8,8,18.6,7.8,28.8
	c-0.8,10.1-3.7,17.6-10.9,24.9c-9.4,8.1-20.6,7.8-32.4,7c-7.1-1-12.3-3.6-17-9c-6.7-9.2-7.1-21.5-5.7-32.5
	c1.7-8.8,5.5-16.1,12.7-21.5C1348.1,2599.5,1355,2598.6,1363.2,2598.5z M1343.2,2608.8c-7.6,9.5-7,20.7-6.2,32.2
	c1,8.1,4.8,13.8,11,19c5.9,3.5,12.2,5.3,19,4c6.9-2.2,11-5.4,14.8-11.5c4.6-9.8,4.9-22.4,1.5-32.6c-3.2-7.3-7.2-11.8-14.4-15.1
	C1360,2601.3,1350.2,2601.7,1343.2,2608.8z"/>
<path class="st0" d="M981.2,2598.5c0.8,0,1.7,0,2.5,0c8.1,0.2,14.7,2.2,20.7,7.8c7.1,8,8,18.6,7.8,28.8
	c-0.8,10.1-3.7,17.6-10.9,24.9c-9.4,8.1-20.6,7.8-32.4,7c-7.1-1-12.3-3.6-17-9c-6.7-9.2-7.1-21.5-5.7-32.5
	c1.7-8.8,5.5-16.1,12.7-21.5C966.1,2599.5,973,2598.6,981.2,2598.5z M961.2,2608.8c-7.6,9.5-7,20.7-6.2,32.2c1,8.1,4.8,13.8,11,19
	c5.9,3.5,12.2,5.3,19,4c6.9-2.2,11-5.4,14.8-11.5c4.6-9.8,4.9-22.4,1.5-32.6c-3.2-7.3-7.2-11.8-14.4-15.1
	C978,2601.3,968.2,2601.7,961.2,2608.8z"/>
<path class="st0" d="M866,2605c5.1,6.5,5.6,12,5,20c-1.7,5.4-5.4,8.8-10,12c-3.9,1.3-7.5,1.1-11.6,1.1c-0.8,0-1.6,0-2.4,0
	c-5.8,0-5.8,0-8.1-1.1c0.3,8.2,0.7,16.5,1,25c3.3,0.3,6.6,0.7,10,1c0,1.3,0,2.6,0,4c-9.2,0-18.5,0-28,0c0-1.3,0-2.6,0-4
	c2.6,0,5.3,0,8,0c-0.3-19.8-0.7-39.6-1-60c-2.6,0-5.3,0-8,0c0-1,0-2,0-3c3.9-0.2,7.8-0.4,11.8-0.6c1.6-0.1,1.6-0.1,3.3-0.2
	C858.6,2598.3,858.6,2598.3,866,2605z M839,2604c0,9.6,0,19.1,0,29c6.3,1.8,9.8,2.6,16,1c3.6-2.2,5.4-4.1,7-8
	c0.8-5.2,0.9-10.4-2-14.9c-3.2-3.7-6.4-5.4-11-7.1C845.7,2604,842.4,2604,839,2604z"/>
<path class="st0" d="M1087,2599c8.6,0,17.2,0,26,0c-0.3,1.3-0.7,2.6-1,4c-2.3,0-4.6,0-7,0c0,4.9,0,9.8-0.1,14.7c0,1.7,0,3.3,0,5
	c-1.3,18.7-1.3,18.7,5.1,35.3c6.3,4.5,13.5,5,21,4c4.3-1.3,7.1-2.9,9.9-6.4c2.1-5,2.2-9.8,2.2-15.1c0-0.7,0-1.4,0-2.2
	c0-1.5,0-3,0-4.6c0-2.3,0-4.6,0-6.9c0-8-0.2-15.9-1.1-23.8c-2.6,0-5.3,0-8,0c0-1.3,0-2.6,0-4c7.3,0,14.5,0,22,0c0,1.3,0,2.6,0,4
	c-2.6,0-5.3,0-8,0c0,0.6,0,1.1,0,1.7c0.1,5.8,0.1,11.6,0.2,17.4c0,2.2,0,4.3,0.1,6.5c0,3.1,0.1,6.2,0.1,9.3c0,0.9,0,1.9,0.1,2.9
	c0,7.5-1.2,15.4-6.1,21.3c-6.6,6.3-14.2,6.3-22.9,6.2c-7.2-0.4-12.8-1.5-18.4-6.2c-4.8-6.2-5.2-11-5.3-18.6c0-0.8,0-1.7-0.1-2.5
	c-0.1-2.7-0.1-5.4-0.2-8c-0.1-2.7-0.1-5.3-0.2-8c0-1.7-0.1-3.3-0.1-5c-0.1-5.3-0.6-10.6-1.2-15.9c-2.3-0.3-4.6-0.7-7-1
	C1087,2601.7,1087,2600.4,1087,2599z"/>
<path class="st0" d="M1514.4,2601.8c1.6,1.2,1.6,1.2,2.7,3.4c0,0.9,0,1.8-0.1,2.8c0,0.7,0,1.4,0,2.1c0,2,0,3.9,0,5.9
	c-2.3-0.1-2.3-0.1-5-1c-1.1-2.3-2.1-4.6-3-7c-4-2.6-8.3-3.1-13-3c-2.7,0.7-4.5,1.6-7,3c-1.1,2.3-1.3,3.8-1.4,6.3
	c0,0.8-0.1,1.5-0.1,2.3c0.8,3.7,2.6,5,5.5,7.4c2.6,1.4,5.2,2.4,7.9,3.4c13.1,5.4,13.1,5.4,16.3,11.9c1.8,5.5,2,11.7,0,17.1
	c-2.8,4.8-6.4,8.4-11.9,10.2c-8.3,1.6-17.6,1.3-25.2-2.6c-2-2-2-2-2.2-5.5c0-1.4,0-2.8,0.1-4.1c0-0.7,0-1.4,0-2.1
	c0-1.7,0.1-3.5,0.1-5.2c1.3,0,2.6,0,4,0c0.3,1,0.3,1,0.5,2c1.8,6.9,1.8,6.9,6.5,12c5.2,1.7,10.8,1.8,15.9-0.1
	c2.9-2.7,3.9-5.2,5.1-8.9c0-3.9-0.5-5.4-3-8.4c-3.7-3.2-7.5-4.8-12-6.6c-5.6-2.2-10.2-4.1-14-9c-2.1-5.5-2.7-11.5-0.9-17.2
	c2.4-5.1,6.3-9.5,11.7-11.4C1499.5,2597.9,1507.3,2598.1,1514.4,2601.8z"/>
<path class="st0" d="M1205.9,2597.8c0.9,0,1.7,0,2.6,0c5.2,0,9.5,0.5,14.5,2.2c0.1,1.5,0.1,2.9,0.1,4.4c0,0.8,0,1.6,0.1,2.5
	c-0.2,2.2-0.2,2.2-2.2,4.2c-0.7-0.8-1.3-1.6-2-2.4c-5.8-5.1-12.6-5-20-4.9c-6.7,0.6-12.9,2.8-18,7.3c-6.5,8.8-9,17.3-7.8,28.2
	c1.2,7.1,4.4,13,10,17.7c7.3,5.1,14,5.8,22.8,5.1c5.6-1.2,9.3-3.5,13-8c1.3-2.2,1.3-2.2,2-4c1,0.5,1,0.5,2,1c0.7,2.3,1.4,4.6,2,7
	c-8.7,7.3-18.6,9.3-29.8,9.4c-0.8,0-1.6,0-2.4,0c-9.3-0.1-16.2-2.8-22.9-9.2c-4.3-4.9-6.4-10.8-6.9-17.2c-0.1-0.8-0.1-1.6-0.2-2.4
	c-0.4-10,1.9-20.1,8.5-27.9C1181.1,2600.8,1192.4,2597.8,1205.9,2597.8z"/>
<path class="st0" d="M1233,2598c18.8,0.3,37.6,0.7,57,1c-0.3,3-0.7,5.9-1,9c-1,0-2,0-3,0c-0.7-0.7-1.3-1.3-2-2
	c-4-1.1-8.1-1.3-12.3-1.6c-1.3-0.1-2.5-0.2-3.8-0.3c-1.4-0.1-1.4-0.1-2.9-0.2c0,6.8,0,13.6-0.1,20.4c0,2.3,0,4.6,0,6.9
	c0,3.3,0,6.7,0,10c0,1,0,2,0,3.1c0,6.3,0.4,12.4,1.1,18.6c3.3,0,6.6,0,10,0c-0.5,2-0.5,2-1,4c-9.2,0-18.5,0-28,0c0-1.3,0-2.6,0-4
	c3,0,5.9,0,9,0c-0.5-28.7-0.5-28.7-1-58c-8.1,0-14.4,0.1-22,2c0,0.7,0,1.3,0,2c-1,0-2,0-3,0C1231,2605.4,1232,2601.7,1233,2598z"/>
<path class="st0" d="M1295,2599c8.6,0,17.2,0,26,0c0,1.3,0,2.6,0,4c-2.6,0-5.3,0-8,0c0.3,19.5,0.7,38.9,1,59c2.6,0.3,5.3,0.7,8,1
	c0,1.3,0,2.6,0,4c-8.2,0-16.5,0-25,0c-0.3-1.3-0.7-2.6-1-4c2.6,0,5.3,0,8,0c-0.3-19.8-0.7-39.6-1-60c-2.6,0-5.3,0-8,0
	C1295,2601.7,1295,2600.4,1295,2599z"/>
<path d="M0,0"/>
<path d="M0,0"/>
<path d="M0,0"/>
</svg>
