<svg width="34" height="24" viewBox="0 0 34 24" fill="none" xmlns="http://www.w3.org/2000/svg">
<path fill-rule="evenodd" clip-rule="evenodd" d="M29.9867 1.02451C31.4202 1.40962 32.5541 2.54356 32.9392 3.97701C33.6453 6.5872 33.6667 12.0001 33.6667 12.0001C33.6667 12.0001 33.6667 17.4344 32.9606 20.0232C32.5755 21.4567 31.4416 22.5906 30.0081 22.9757C27.4193 23.6818 17 23.6818 17 23.6818C17 23.6818 6.58066 23.6818 3.99187 22.9757C2.55841 22.5906 1.42448 21.4567 1.03937 20.0232C0.333336 17.4131 0.333336 12.0001 0.333336 12.0001C0.333336 12.0001 0.333336 6.5872 1.01797 3.99842C1.40308 2.56495 2.53702 1.43102 3.97048 1.04591C6.55927 0.339871 16.9786 0.318481 16.9786 0.318481C16.9786 0.318481 27.398 0.318481 29.9867 1.02451ZM22.306 12.0001L13.6624 17.0065V6.99371L22.306 12.0001Z" fill="white"/>
</svg>
